<svg id="visual" viewBox="0 0 900 600" width="900" height="600" xmlns="http://www.w3.org/2000/svg" xmlns:xlink="http://www.w3.org/1999/xlink" version="1.1"><rect x="0" y="0" width="900" height="600" fill="#a78bfa"></rect><g transform="translate(461.87223058827624 356.8257976521403)"><path d="M85.8 -157.3C121.6 -127.9 168.2 -126 188.7 -104.3C209.2 -82.7 203.6 -41.3 210.7 4.1C217.7 49.5 237.5 99 220.3 126.4C203.1 153.8 149.1 159.2 106.2 153.2C63.3 147.2 31.7 129.9 3.5 123.8C-24.7 117.7 -49.3 123 -88.3 126.7C-127.3 130.4 -180.6 132.7 -209.9 111.4C-239.2 90 -244.6 45 -248.4 -2.2C-252.1 -49.3 -254.2 -98.7 -235.7 -138.8C-217.2 -178.9 -178.1 -209.8 -135.4 -235.2C-92.7 -260.5 -46.3 -280.3 -10.7 -261.8C25 -243.3 50 -186.6 85.8 -157.3" fill="#7c3aed"></path></g></svg>