<?xml version="1.0" encoding="utf-8"?>
<!-- Generator: Adobe Illustrator 27.5.0, SVG Export Plug-In . SVG Version: 6.00 Build 0)  -->
<svg version="1.1" id="Layer" xmlns="http://www.w3.org/2000/svg" xmlns:xlink="http://www.w3.org/1999/xlink" x="0px" y="0px"
	 viewBox="0 0 500 500" style="enable-background:new 0 0 500 500;" xml:space="preserve">
<g>
	<linearGradient id="SVGID_1_" gradientUnits="userSpaceOnUse" x1="-0.0146" y1="250.0005" x2="499.9854" y2="250.0005">
		<stop  offset="0" style="stop-color:#FFD166"/>
		<stop  offset="1" style="stop-color:#FFAD66"/>
	</linearGradient>
	<rect x="-0.015" y="0.001" style="fill:url(#SVGID_1_);" width="500" height="500"/>
	
		<ellipse transform="matrix(0.0054 -1 1 0.0054 -104.1982 600.902)" style="fill:#FFE666;" cx="249.985" cy="352.833" rx="120.697" ry="209.062"/>
	<path style="fill:#FFC066;" d="M348.846,414.698l-106.34-61.373c-2.276-1.314-1.991-3.609,0.638-5.127l0.63-0.449
		c2.628-1.517,6.604-1.682,8.88-0.368l106.34,61.373c2.276,1.314,1.99,3.609-0.637,5.127l-0.63,0.449
		C355.098,415.847,351.122,416.011,348.846,414.698z"/>
	<g>
		<g>
			<g style="enable-background:new    ;">
				<path style="fill:#E6E6E6;" d="M351.546,126.341L245.835,61.868c-0.7-0.404-1.333-0.442-1.789-0.177l-5.474,3.181
					c0.456-0.265,1.089-0.227,1.789,0.177l108.555,62.758c1.379,0.796,2.496,2.731,2.491,4.315l-0.354,244.212
					c-0.002,0.787-0.281,1.341-0.73,1.602l2.631-1.466c0.449-0.261,0.727-0.815,0.73-1.602l0.354-244.212
					C354.042,129.072,352.925,127.137,351.546,126.341z"/>
				<g>
					<path style="fill:#BFBFBF;" d="M351.425,132.103l-0.031,12.832l-0.326,231.379c0,1.584-1.118,2.221-2.501,1.429
						l-108.549-62.756c-1.398-0.808-2.516-2.734-2.501-4.319l0.311-231.378l0.031-12.832c0.016-1.585,1.134-2.221,2.517-1.429
						l108.564,62.756C350.306,128.592,351.425,130.518,351.425,132.103z"/>
				</g>
				<g>
					<path style="fill:#1F2125;" d="M348.367,132.549l-0.03,12.378l-0.315,227.416c0,1.528-1.079,2.143-2.413,1.378l-102.624-59.335
						c-1.349-0.779-2.428-2.637-2.413-4.166l0.3-227.416l0.03-12.378c0.015-1.528,1.094-2.143,2.428-1.378l102.639,59.334
						C347.288,129.163,348.367,131.021,348.367,132.549z"/>
				</g>
				<path style="fill:#BFBFBF;" d="M351.425,132.103l-0.031,12.832L237.827,79.29l0.031-12.832c0.016-1.585,1.134-2.221,2.517-1.429
					l108.564,62.756C350.306,128.592,351.425,130.518,351.425,132.103z"/>
			</g>
		</g>
		<g>
			<path style="fill:#006EFF;" d="M255.315,105.557l-4.663-2.692c-0.749-0.433-1.357-1.594-1.357-2.593l0,0
				c0-0.999,0.608-1.459,1.357-1.026l4.663,2.692c0.749,0.433,1.357,1.594,1.357,2.593l0,0
				C256.672,105.53,256.064,105.989,255.315,105.557z"/>
			<path style="fill:#006EFF;" d="M255.315,169.014l-4.663-2.692c-0.749-0.433-1.357-1.594-1.357-2.593l0,0
				c0-0.999,0.608-1.459,1.357-1.026l4.663,2.692c0.749,0.433,1.357,1.594,1.357,2.593l0,0
				C256.672,168.988,256.064,169.447,255.315,169.014z"/>
			<path style="fill:#B3D4FF;" d="M268.436,176.59l-9.337-5.391c-0.749-0.433-1.357-1.594-1.357-2.593l0,0
				c0-0.999,0.608-1.458,1.357-1.026l9.337,5.391c0.749,0.433,1.357,1.594,1.357,2.593l0,0
				C269.793,176.563,269.185,177.023,268.436,176.59z"/>
			<path style="fill:#FFAD66;" d="M302.112,196.033l-29.836-17.226c-0.75-0.432-1.357-1.593-1.357-2.593l0,0
				c0-0.999,0.608-1.459,1.357-1.026l29.836,17.226c0.75,0.433,1.357,1.594,1.357,2.593l0,0
				C303.469,196.006,302.862,196.465,302.112,196.033z"/>
			<path style="fill:#B3D4FF;" d="M273.729,116.189l-14.143-8.165c-0.749-0.433-1.357-1.594-1.357-2.593l0,0
				c0-0.999,0.608-1.459,1.357-1.026l14.143,8.165c0.75,0.433,1.357,1.594,1.357,2.593l0,0
				C275.087,116.162,274.479,116.621,273.729,116.189z"/>
			<path style="fill:#FFAD66;" d="M320.583,143.24l-42.525-24.552c-0.749-0.433-1.357-1.593-1.357-2.593l0,0
				c0-0.999,0.608-1.459,1.357-1.026l42.525,24.552c0.75,0.433,1.357,1.594,1.357,2.593l0,0
				C321.94,143.213,321.333,143.672,320.583,143.24z"/>
			<path style="fill:#006EFF;" d="M259.707,114.296l-4.663-2.692c-0.749-0.433-1.357-1.594-1.357-2.593l0,0
				c0-0.999,0.608-1.459,1.357-1.026l4.663,2.692c0.749,0.433,1.357,1.594,1.357,2.593l0,0
				C261.064,114.27,260.457,114.729,259.707,114.296z"/>
			<path style="fill:#B3D4FF;" d="M278.122,124.928l-14.143-8.165c-0.75-0.433-1.357-1.594-1.357-2.593l0,0
				c0-0.999,0.607-1.459,1.357-1.026l14.143,8.165c0.749,0.433,1.357,1.594,1.357,2.593l0,0
				C279.479,124.902,278.871,125.361,278.122,124.928z"/>
			<path style="fill:#FFAD66;" d="M324.976,151.979l-42.525-24.552c-0.75-0.433-1.357-1.594-1.357-2.593l0,0
				c0-0.999,0.608-1.459,1.357-1.026l42.525,24.552c0.749,0.433,1.357,1.594,1.357,2.593l0,0
				C326.333,151.953,325.725,152.412,324.976,151.979z"/>
			<path style="fill:#006EFF;" d="M259.707,121.017l-4.663-2.692c-0.749-0.433-1.357-1.594-1.357-2.593l0,0
				c0-0.999,0.608-1.459,1.357-1.026l4.663,2.692c0.749,0.433,1.357,1.594,1.357,2.593l0,0
				C261.064,120.99,260.457,121.45,259.707,121.017z"/>
			<path style="fill:#006EFF;" d="M259.707,127.393l-4.663-2.692c-0.749-0.433-1.357-1.594-1.357-2.593l0,0
				c0-0.999,0.608-1.459,1.357-1.026l4.663,2.692c0.749,0.433,1.357,1.594,1.357,2.593l0,0
				C261.064,127.366,260.457,127.826,259.707,127.393z"/>
			<path style="fill:#006EFF;" d="M259.707,153.112l-4.663-2.692c-0.749-0.433-1.357-1.594-1.357-2.593l0,0
				c0-0.999,0.608-1.459,1.357-1.026l4.663,2.692c0.749,0.433,1.357,1.594,1.357,2.593l0,0
				C261.064,153.085,260.457,153.544,259.707,153.112z"/>
			<path style="fill:#006EFF;" d="M259.707,159.373l-4.663-2.692c-0.749-0.433-1.357-1.594-1.357-2.593l0,0
				c0-0.999,0.608-1.459,1.357-1.026l4.663,2.692c0.749,0.433,1.357,1.594,1.357,2.593l0,0
				C261.064,159.346,260.457,159.805,259.707,159.373z"/>
			<path style="fill:#006EFF;" d="M259.707,177.237l-4.663-2.692c-0.749-0.433-1.357-1.594-1.357-2.593l0,0
				c0-0.999,0.608-1.459,1.357-1.026l4.663,2.692c0.749,0.433,1.357,1.594,1.357,2.593l0,0
				C261.064,177.21,260.457,177.669,259.707,177.237z"/>
			<path style="fill:#B3D4FF;" d="M272.453,184.596l-9.074-5.239c-0.749-0.433-1.357-1.594-1.357-2.593l0,0
				c0-0.999,0.608-1.459,1.357-1.026l9.074,5.239c0.75,0.433,1.357,1.594,1.357,2.593l0,0
				C273.81,184.569,273.203,185.028,272.453,184.596z"/>
			<path style="fill:#FFAD66;" d="M307.631,204.906l-31.018-17.909c-0.75-0.432-1.357-1.593-1.357-2.593l0,0
				c0-0.999,0.607-1.459,1.357-1.026l31.018,17.908c0.749,0.433,1.357,1.594,1.357,2.593l0,0
				C308.988,204.879,308.38,205.338,307.631,204.906z"/>
			<path style="fill:#006EFF;" d="M324.244,196.633l-4.663-2.692c-0.749-0.432-1.357-1.593-1.357-2.593l0,0
				c0-0.999,0.608-1.459,1.357-1.026l4.663,2.692c0.749,0.433,1.357,1.594,1.357,2.593l0,0
				C325.601,196.606,324.993,197.066,324.244,196.633z"/>
			<path style="fill:#006EFF;" d="M257.079,131.519l-4.663-2.692c-0.749-0.433-1.357-1.594-1.357-2.593l0,0
				c0-0.999,0.608-1.459,1.357-1.026l4.663,2.692c0.749,0.433,1.357,1.594,1.357,2.593l0,0
				C258.436,131.492,257.829,131.952,257.079,131.519z"/>
			<path style="fill:#B3D4FF;" d="M269.975,138.965l-8.924-5.152c-0.75-0.433-1.357-1.594-1.357-2.593l0,0
				c0-0.999,0.607-1.459,1.357-1.026l8.924,5.152c0.75,0.433,1.357,1.593,1.357,2.593l0,0
				C271.332,138.938,270.725,139.397,269.975,138.965z"/>
			<path style="fill:#B3D4FF;" d="M317.955,166.666l-6.296-3.635c-0.749-0.433-1.357-1.594-1.357-2.593l0,0
				c0-0.999,0.608-1.459,1.357-1.026l6.296,3.635c0.749,0.433,1.357,1.594,1.357,2.593v0
				C319.312,166.639,318.705,167.098,317.955,166.666z"/>
			<path style="fill:#FFAD66;" d="M288.521,149.672l-14.518-8.382c-0.749-0.433-1.357-1.594-1.357-2.593l0,0
				c0-0.999,0.608-1.459,1.357-1.026l14.518,8.382c0.75,0.433,1.357,1.594,1.357,2.593l0,0
				C289.878,149.646,289.271,150.105,288.521,149.672z"/>
			<path style="fill:#006EFF;" d="M257.079,138.498l-4.663-2.692c-0.749-0.433-1.357-1.594-1.357-2.593l0,0
				c0-0.999,0.608-1.459,1.357-1.026l4.663,2.692c0.749,0.433,1.357,1.594,1.357,2.593l0,0
				C258.436,138.471,257.829,138.931,257.079,138.498z"/>
			<path style="fill:#006EFF;" d="M257.079,163.959l-4.663-2.692c-0.749-0.433-1.357-1.594-1.357-2.593l0,0
				c0-0.999,0.608-1.459,1.357-1.026l4.663,2.692c0.749,0.433,1.357,1.594,1.357,2.593l0,0
				C258.436,163.932,257.829,164.391,257.079,163.959z"/>
			<path style="fill:#B3D4FF;" d="M269.975,145.944l-8.924-5.153c-0.75-0.433-1.357-1.594-1.357-2.593l0,0
				c0-0.999,0.607-1.459,1.357-1.026l8.924,5.152c0.75,0.433,1.357,1.594,1.357,2.593l0,0
				C271.332,145.917,270.725,146.376,269.975,145.944z"/>
			<path style="fill:#B3D4FF;" d="M269.975,165.301l-5.921-3.418c-0.749-0.432-1.357-1.593-1.357-2.593l0,0
				c0-0.999,0.608-1.459,1.357-1.026l5.921,3.418c0.75,0.433,1.357,1.593,1.357,2.593l0,0
				C271.332,165.275,270.725,165.734,269.975,165.301z"/>
			<path style="fill:#B3D4FF;" d="M295.317,179.932l-5.921-3.418c-0.749-0.433-1.357-1.594-1.357-2.593l0,0
				c0-0.999,0.608-1.459,1.357-1.026l5.921,3.418c0.749,0.433,1.357,1.593,1.357,2.593l0,0
				C296.674,179.906,296.066,180.365,295.317,179.932z"/>
			<path style="fill:#F2F2F2;" d="M335.845,191.081l-78.623-45.393c-0.75-0.433-1.357-1.594-1.357-2.593v0
				c0-0.999,0.607-1.458,1.357-1.026l78.623,45.393c0.749,0.433,1.357,1.594,1.357,2.593l0,0
				C337.202,191.055,336.594,191.514,335.845,191.081z"/>
			<path style="fill:#FFAD66;" d="M285.218,154.744l-11.214-6.475c-0.749-0.433-1.357-1.594-1.357-2.593l0,0
				c0-0.999,0.608-1.459,1.357-1.026l11.214,6.475c0.75,0.433,1.357,1.594,1.357,2.593v0
				C286.575,154.717,285.967,155.176,285.218,154.744z"/>
			<path style="fill:#FFAD66;" d="M285.218,174.101l-11.214-6.475c-0.749-0.433-1.357-1.593-1.357-2.593l0,0
				c0-0.999,0.608-1.459,1.357-1.026l11.214,6.475c0.75,0.433,1.357,1.594,1.357,2.593l0,0
				C286.575,174.075,285.967,174.534,285.218,174.101z"/>
			<path style="fill:#F2F2F2;" d="M315.402,191.529l-15.832-9.141c-0.749-0.433-1.357-1.594-1.357-2.593l0,0
				c0-0.999,0.608-1.459,1.357-1.026l15.832,9.141c0.749,0.433,1.357,1.594,1.357,2.593l0,0
				C316.759,191.502,316.152,191.961,315.402,191.529z"/>
			<path style="fill:#F2F2F2;" d="M307.781,160.792l-14.518-8.382c-0.749-0.433-1.357-1.594-1.357-2.593l0,0
				c0-0.999,0.608-1.459,1.357-1.026l14.518,8.382c0.749,0.433,1.357,1.594,1.357,2.593l0,0
				C309.138,160.765,308.53,161.224,307.781,160.792z"/>
			<path style="fill:#B3D4FF;" d="M278.122,131.649l-14.143-8.165c-0.75-0.433-1.357-1.594-1.357-2.593l0,0
				c0-0.999,0.607-1.459,1.357-1.026l14.143,8.165c0.749,0.433,1.357,1.594,1.357,2.593l0,0
				C279.479,131.622,278.871,132.081,278.122,131.649z"/>
			<path style="fill:#B3D4FF;" d="M308.532,149.206l-14.143-8.165c-0.75-0.433-1.357-1.594-1.357-2.593l0,0
				c0-0.999,0.608-1.459,1.357-1.026l14.143,8.165c0.75,0.433,1.357,1.593,1.357,2.593l0,0
				C309.889,149.179,309.281,149.639,308.532,149.206z"/>
			<path style="fill:#FFAD66;" d="M289.61,138.281l-7.16-4.134c-0.75-0.433-1.357-1.593-1.357-2.593l0,0
				c0-0.999,0.608-1.459,1.357-1.026l7.16,4.134c0.749,0.433,1.357,1.594,1.357,2.593l0,0
				C290.967,138.255,290.36,138.714,289.61,138.281z"/>
			<path style="fill:#FFAD66;" d="M336.408,165.3l-23.097-13.335c-0.749-0.433-1.357-1.594-1.357-2.593l0,0
				c0-0.999,0.608-1.459,1.357-1.026l23.097,13.335c0.75,0.432,1.357,1.593,1.357,2.593l0,0
				C337.765,165.273,337.157,165.733,336.408,165.3z"/>
			<path style="fill:#006EFF;" d="M259.707,182.923l-4.663-2.692c-0.749-0.433-1.357-1.594-1.357-2.593l0,0
				c0-0.999,0.608-1.459,1.357-1.026l4.663,2.692c0.749,0.433,1.357,1.594,1.357,2.593l0,0
				C261.064,182.897,260.457,183.356,259.707,182.923z"/>
			<path style="fill:#B3D4FF;" d="M278.122,193.555l-14.143-8.165c-0.75-0.433-1.357-1.594-1.357-2.593l0,0
				c0-0.999,0.607-1.459,1.357-1.026l14.143,8.165c0.749,0.432,1.357,1.593,1.357,2.593l0,0
				C279.479,193.529,278.871,193.988,278.122,193.555z"/>
			<path style="fill:#B3D4FF;" d="M308.532,211.113l-14.143-8.165c-0.75-0.433-1.357-1.594-1.357-2.593l0,0
				c0-0.999,0.608-1.459,1.357-1.026l14.143,8.165c0.75,0.433,1.357,1.594,1.357,2.593l0,0
				C309.889,211.086,309.281,211.545,308.532,211.113z"/>
			<path style="fill:#FFAD66;" d="M289.61,200.188l-7.16-4.134c-0.75-0.433-1.357-1.594-1.357-2.593l0,0
				c0-0.999,0.608-1.459,1.357-1.026l7.16,4.134c0.749,0.433,1.357,1.594,1.357,2.593l0,0
				C290.967,200.161,290.36,200.621,289.61,200.188z"/>
			<path style="fill:#FFAD66;" d="M336.408,227.206l-23.097-13.335c-0.749-0.433-1.357-1.594-1.357-2.593l0,0
				c0-0.999,0.608-1.459,1.357-1.026l23.097,13.335c0.75,0.432,1.357,1.593,1.357,2.593l0,0
				C337.765,227.18,337.157,227.639,336.408,227.206z"/>
		</g>
		<g>
			<path style="fill:#006EFF;" d="M255.315,189.474l-4.663-2.693c-0.749-0.433-1.357-1.594-1.357-2.593l0,0
				c0-0.999,0.608-1.459,1.357-1.026l4.663,2.692c0.749,0.433,1.357,1.594,1.357,2.593l0,0
				C256.672,189.447,256.064,189.907,255.315,189.474z"/>
			<path style="fill:#006EFF;" d="M255.315,252.931l-4.663-2.692c-0.749-0.433-1.357-1.594-1.357-2.593l0,0
				c0-0.999,0.608-1.459,1.357-1.026l4.663,2.693c0.749,0.433,1.357,1.594,1.357,2.593l0,0
				C256.672,252.905,256.064,253.364,255.315,252.931z"/>
			<path style="fill:#B3D4FF;" d="M268.436,260.507l-9.337-5.391c-0.749-0.433-1.357-1.594-1.357-2.593l0,0
				c0-0.999,0.608-1.458,1.357-1.026l9.337,5.391c0.749,0.433,1.357,1.594,1.357,2.593l0,0
				C269.793,260.48,269.185,260.94,268.436,260.507z"/>
			<path style="fill:#FFAD66;" d="M302.112,279.95l-29.836-17.226c-0.75-0.433-1.357-1.593-1.357-2.593l0,0
				c0-0.999,0.608-1.459,1.357-1.026l29.836,17.226c0.75,0.433,1.357,1.594,1.357,2.593l0,0
				C303.469,279.923,302.862,280.383,302.112,279.95z"/>
			<path style="fill:#B3D4FF;" d="M273.729,200.106l-14.143-8.165c-0.749-0.433-1.357-1.594-1.357-2.593l0,0
				c0-0.999,0.608-1.459,1.357-1.026l14.143,8.165c0.75,0.433,1.357,1.594,1.357,2.593l0,0
				C275.087,200.079,274.479,200.539,273.729,200.106z"/>
			<path style="fill:#FFAD66;" d="M320.583,227.157l-42.525-24.552c-0.749-0.432-1.357-1.593-1.357-2.593l0,0
				c0-0.999,0.608-1.459,1.357-1.026l42.525,24.552c0.75,0.433,1.357,1.594,1.357,2.593l0,0
				C321.94,227.13,321.333,227.59,320.583,227.157z"/>
			<path style="fill:#006EFF;" d="M259.707,198.214l-4.663-2.692c-0.749-0.433-1.357-1.594-1.357-2.593l0,0
				c0-0.999,0.608-1.459,1.357-1.026l4.663,2.692c0.749,0.433,1.357,1.594,1.357,2.593l0,0
				C261.064,198.187,260.457,198.646,259.707,198.214z"/>
			<path style="fill:#B3D4FF;" d="M278.122,208.846l-14.143-8.165c-0.75-0.433-1.357-1.594-1.357-2.593l0,0
				c0-0.999,0.607-1.459,1.357-1.026l14.143,8.165c0.749,0.433,1.357,1.594,1.357,2.593l0,0
				C279.479,208.819,278.871,209.278,278.122,208.846z"/>
			<path style="fill:#FFAD66;" d="M324.976,235.896l-42.525-24.552c-0.75-0.433-1.357-1.594-1.357-2.593l0,0
				c0-0.999,0.608-1.459,1.357-1.026l42.525,24.552c0.749,0.433,1.357,1.594,1.357,2.593l0,0
				C326.333,235.87,325.725,236.329,324.976,235.896z"/>
			<path style="fill:#006EFF;" d="M259.707,204.934l-4.663-2.692c-0.749-0.433-1.357-1.594-1.357-2.593l0,0
				c0-0.999,0.608-1.459,1.357-1.026l4.663,2.692c0.749,0.433,1.357,1.594,1.357,2.593l0,0
				C261.064,204.908,260.457,205.367,259.707,204.934z"/>
			<path style="fill:#006EFF;" d="M259.707,211.31l-4.663-2.692c-0.749-0.433-1.357-1.594-1.357-2.593l0,0
				c0-0.999,0.608-1.459,1.357-1.026l4.663,2.692c0.749,0.433,1.357,1.594,1.357,2.593l0,0
				C261.064,211.283,260.457,211.743,259.707,211.31z"/>
			<path style="fill:#006EFF;" d="M259.707,237.029l-4.663-2.692c-0.749-0.433-1.357-1.594-1.357-2.593l0,0
				c0-0.999,0.608-1.459,1.357-1.026l4.663,2.692c0.749,0.433,1.357,1.594,1.357,2.593l0,0
				C261.064,237.002,260.457,237.462,259.707,237.029z"/>
			<path style="fill:#006EFF;" d="M259.707,243.29l-4.663-2.692c-0.749-0.433-1.357-1.594-1.357-2.593l0,0
				c0-0.999,0.608-1.459,1.357-1.026l4.663,2.692c0.749,0.433,1.357,1.594,1.357,2.593l0,0
				C261.064,243.264,260.457,243.723,259.707,243.29z"/>
			<path style="fill:#006EFF;" d="M259.707,261.154l-4.663-2.692c-0.749-0.433-1.357-1.594-1.357-2.593l0,0
				c0-0.999,0.608-1.459,1.357-1.026l4.663,2.692c0.749,0.433,1.357,1.594,1.357,2.593l0,0
				C261.064,261.128,260.457,261.587,259.707,261.154z"/>
			<path style="fill:#B3D4FF;" d="M272.453,268.513l-9.074-5.239c-0.749-0.433-1.357-1.594-1.357-2.593l0,0
				c0-0.999,0.608-1.459,1.357-1.026l9.074,5.239c0.75,0.433,1.357,1.594,1.357,2.593l0,0
				C273.81,268.486,273.203,268.946,272.453,268.513z"/>
			<path style="fill:#FFAD66;" d="M307.631,288.823l-31.018-17.909c-0.75-0.432-1.357-1.593-1.357-2.593l0,0
				c0-0.999,0.607-1.459,1.357-1.026l31.018,17.908c0.749,0.433,1.357,1.594,1.357,2.593l0,0
				C308.988,288.796,308.38,289.256,307.631,288.823z"/>
			<path style="fill:#006EFF;" d="M324.244,280.55l-4.663-2.692c-0.749-0.432-1.357-1.593-1.357-2.593l0,0
				c0-0.999,0.608-1.459,1.357-1.026l4.663,2.692c0.749,0.433,1.357,1.594,1.357,2.593l0,0
				C325.601,280.524,324.993,280.983,324.244,280.55z"/>
			<path style="fill:#006EFF;" d="M257.079,215.436l-4.663-2.692c-0.749-0.433-1.357-1.594-1.357-2.593l0,0
				c0-0.999,0.608-1.459,1.357-1.026l4.663,2.692c0.749,0.433,1.357,1.594,1.357,2.593l0,0
				C258.436,215.41,257.829,215.869,257.079,215.436z"/>
			<path style="fill:#B3D4FF;" d="M269.975,222.882l-8.924-5.152c-0.75-0.433-1.357-1.594-1.357-2.593l0,0
				c0-0.999,0.607-1.459,1.357-1.026l8.924,5.152c0.75,0.433,1.357,1.593,1.357,2.593l0,0
				C271.332,222.855,270.725,223.315,269.975,222.882z"/>
			<path style="fill:#B3D4FF;" d="M317.955,250.583l-6.296-3.635c-0.749-0.433-1.357-1.594-1.357-2.593l0,0
				c0-0.999,0.608-1.459,1.357-1.026l6.296,3.635c0.749,0.433,1.357,1.594,1.357,2.593v0
				C319.312,250.557,318.705,251.016,317.955,250.583z"/>
			<path style="fill:#FFAD66;" d="M288.521,233.59l-14.518-8.382c-0.749-0.433-1.357-1.594-1.357-2.593l0,0
				c0-0.999,0.608-1.459,1.357-1.026l14.518,8.382c0.75,0.433,1.357,1.594,1.357,2.593l0,0
				C289.878,233.563,289.271,234.022,288.521,233.59z"/>
			<path style="fill:#006EFF;" d="M257.079,222.415l-4.663-2.692c-0.749-0.433-1.357-1.594-1.357-2.593l0,0
				c0-0.999,0.608-1.459,1.357-1.026l4.663,2.692c0.749,0.433,1.357,1.594,1.357,2.593l0,0
				C258.436,222.389,257.829,222.848,257.079,222.415z"/>
			<path style="fill:#006EFF;" d="M257.079,247.876l-4.663-2.692c-0.749-0.433-1.357-1.594-1.357-2.593l0,0
				c0-0.999,0.608-1.459,1.357-1.026l4.663,2.692c0.749,0.433,1.357,1.594,1.357,2.593l0,0
				C258.436,247.849,257.829,248.309,257.079,247.876z"/>
			<path style="fill:#B3D4FF;" d="M269.975,229.861l-8.924-5.153c-0.75-0.433-1.357-1.594-1.357-2.593l0,0
				c0-0.999,0.607-1.459,1.357-1.026l8.924,5.152c0.75,0.433,1.357,1.594,1.357,2.593l0,0
				C271.332,229.834,270.725,230.294,269.975,229.861z"/>
			<path style="fill:#B3D4FF;" d="M269.975,249.218l-5.921-3.418c-0.749-0.432-1.357-1.593-1.357-2.593l0,0
				c0-0.999,0.608-1.459,1.357-1.026l5.921,3.419c0.75,0.433,1.357,1.594,1.357,2.593l0,0
				C271.332,249.192,270.725,249.651,269.975,249.218z"/>
			<path style="fill:#B3D4FF;" d="M295.317,263.849l-5.921-3.418c-0.749-0.433-1.357-1.594-1.357-2.593l0,0
				c0-0.999,0.608-1.459,1.357-1.026l5.921,3.418c0.749,0.433,1.357,1.594,1.357,2.593l0,0
				C296.674,263.823,296.066,264.282,295.317,263.849z"/>
			<path style="fill:#F2F2F2;" d="M335.845,274.999l-78.623-45.393c-0.75-0.433-1.357-1.594-1.357-2.593v0
				c0-0.999,0.607-1.458,1.357-1.026l78.623,45.393c0.749,0.433,1.357,1.594,1.357,2.593l0,0
				C337.202,274.972,336.594,275.431,335.845,274.999z"/>
			<path style="fill:#FFAD66;" d="M285.218,238.661l-11.214-6.475c-0.749-0.433-1.357-1.593-1.357-2.593l0,0
				c0-0.999,0.608-1.459,1.357-1.026l11.214,6.475c0.75,0.433,1.357,1.594,1.357,2.593v0
				C286.575,238.635,285.967,239.094,285.218,238.661z"/>
			<path style="fill:#FFAD66;" d="M285.218,258.018l-11.214-6.475c-0.749-0.433-1.357-1.593-1.357-2.593l0,0
				c0-0.999,0.608-1.459,1.357-1.026l11.214,6.475c0.75,0.433,1.357,1.594,1.357,2.593l0,0
				C286.575,257.992,285.967,258.451,285.218,258.018z"/>
			<path style="fill:#F2F2F2;" d="M315.402,275.446l-15.832-9.141c-0.749-0.433-1.357-1.594-1.357-2.593l0,0
				c0-0.999,0.608-1.459,1.357-1.026l15.832,9.141c0.749,0.433,1.357,1.594,1.357,2.593l0,0
				C316.759,275.419,316.152,275.879,315.402,275.446z"/>
			<path style="fill:#F2F2F2;" d="M307.781,244.709l-14.518-8.382c-0.749-0.433-1.357-1.594-1.357-2.593l0,0
				c0-0.999,0.608-1.459,1.357-1.026l14.518,8.382c0.749,0.433,1.357,1.594,1.357,2.593l0,0
				C309.138,244.682,308.53,245.142,307.781,244.709z"/>
			<path style="fill:#B3D4FF;" d="M278.122,215.566l-14.143-8.165c-0.75-0.433-1.357-1.594-1.357-2.593l0,0
				c0-0.999,0.607-1.459,1.357-1.026l14.143,8.165c0.749,0.433,1.357,1.594,1.357,2.593l0,0
				C279.479,215.539,278.871,215.999,278.122,215.566z"/>
			<path style="fill:#B3D4FF;" d="M308.532,233.123l-14.143-8.165c-0.75-0.433-1.357-1.594-1.357-2.593l0,0
				c0-0.999,0.608-1.459,1.357-1.026l14.143,8.165c0.75,0.433,1.357,1.594,1.357,2.593l0,0
				C309.889,233.097,309.281,233.556,308.532,233.123z"/>
			<path style="fill:#FFAD66;" d="M289.61,222.199l-7.16-4.134c-0.75-0.433-1.357-1.594-1.357-2.593l0,0
				c0-0.999,0.608-1.459,1.357-1.026l7.16,4.134c0.749,0.433,1.357,1.594,1.357,2.593l0,0
				C290.967,222.172,290.36,222.632,289.61,222.199z"/>
			<path style="fill:#FFAD66;" d="M336.408,249.217l-23.097-13.335c-0.749-0.433-1.357-1.594-1.357-2.593l0,0
				c0-0.999,0.608-1.459,1.357-1.026l23.097,13.335c0.75,0.432,1.357,1.593,1.357,2.593l0,0
				C337.765,249.191,337.157,249.65,336.408,249.217z"/>
			<path style="fill:#006EFF;" d="M259.707,266.841l-4.663-2.692c-0.749-0.433-1.357-1.594-1.357-2.593l0,0
				c0-0.999,0.608-1.459,1.357-1.026l4.663,2.692c0.749,0.433,1.357,1.594,1.357,2.593l0,0
				C261.064,266.814,260.457,267.273,259.707,266.841z"/>
			<path style="fill:#B3D4FF;" d="M278.122,277.473l-14.143-8.165c-0.75-0.433-1.357-1.594-1.357-2.593l0,0
				c0-0.999,0.607-1.459,1.357-1.026l14.143,8.165c0.749,0.432,1.357,1.593,1.357,2.593l0,0
				C279.479,277.446,278.871,277.905,278.122,277.473z"/>
			<path style="fill:#B3D4FF;" d="M308.532,295.03l-14.143-8.165c-0.75-0.433-1.357-1.594-1.357-2.593l0,0
				c0-0.999,0.608-1.459,1.357-1.026l14.143,8.165c0.75,0.433,1.357,1.594,1.357,2.593l0,0
				C309.889,295.003,309.281,295.462,308.532,295.03z"/>
			<path style="fill:#FFAD66;" d="M289.61,284.105l-7.16-4.134c-0.75-0.433-1.357-1.594-1.357-2.593l0,0
				c0-0.999,0.608-1.459,1.357-1.026l7.16,4.134c0.749,0.433,1.357,1.594,1.357,2.593l0,0
				C290.967,284.079,290.36,284.538,289.61,284.105z"/>
			<path style="fill:#FFAD66;" d="M336.408,311.124l-23.097-13.335c-0.749-0.433-1.357-1.594-1.357-2.593l0,0
				c0-0.999,0.608-1.459,1.357-1.026l23.097,13.335c0.75,0.432,1.357,1.593,1.357,2.593l0,0
				C337.765,311.097,337.157,311.556,336.408,311.124z"/>
		</g>
		<g>
			<path style="fill:#404040;" d="M337.12,129.254c0,2.247,1.587,4.985,3.546,6.116c1.958,1.13,3.546,0.225,3.546-2.022
				c0-2.247-1.587-4.985-3.546-6.116C338.707,126.102,337.12,127.007,337.12,129.254z"/>
			<path style="fill:#404040;" d="M327.212,123.534c0,2.247,1.587,4.985,3.546,6.116c1.958,1.13,3.546,0.225,3.546-2.022
				s-1.588-4.985-3.546-6.116C328.8,120.382,327.212,121.287,327.212,123.534z"/>
			<path style="fill:#404040;" d="M317.305,117.814c0,2.247,1.588,4.985,3.546,6.116c1.958,1.131,3.546,0.225,3.546-2.022
				c0-2.247-1.588-4.985-3.546-6.116C318.893,114.662,317.305,115.567,317.305,117.814z"/>
		</g>
	</g>
	<g>
		<path style="fill:#FFC066;" d="M299.484,443.927l-106.34-61.373c-2.276-1.314-1.991-3.609,0.638-5.127l6.037-3.485
			c2.628-1.517,6.604-1.682,8.88-0.368l106.34,61.373c2.276,1.314,1.991,3.609-0.637,5.127l-6.037,3.485
			C305.736,445.076,301.76,445.24,299.484,443.927z"/>
		<path style="fill:#999999;" d="M309.944,135.839l-97.851-56.494c-1.837-1.061-3.496-1.091-4.788-0.358l-9.653,5.584l11.363,8.836
			l2.778-0.704v231.881c0,5.438,3.307,11.756,7.385,14.111l85.797,62.802v3.871l9.987-5.831l-0.001-0.039
			c1.448-0.961,2.368-2.975,2.368-5.821V149.95C317.329,144.511,314.022,138.194,309.944,135.839z"/>
		<path style="fill:#E6E6E6;" d="M294.981,156.541v-10.943l-9.623,7.229l-42.055-17.625l-31.51-22.934V92.699l-2.792,0.698
			l-11.343-8.825l9.648-5.584c1.296-0.723,2.942-0.698,4.786,0.349l97.845,56.513c2.692,1.546,5.036,4.811,6.307,8.401
			L294.981,156.541z"/>
		<g>
			<path style="fill:#CCCCCC;" d="M300.231,404.922l-97.851-56.494c-4.079-2.355-7.385-8.673-7.385-14.111V90.59
				c0-5.438,3.306-7.938,7.385-5.583l97.851,56.494c4.079,2.355,7.385,8.673,7.385,14.111v243.726
				C307.616,404.777,304.31,407.277,300.231,404.922z"/>
			<path style="fill:#333333;" d="M197.153,335.756V91.644c0-3.964,2.41-5.786,5.382-4.069l97.54,56.314
				c2.973,1.716,5.383,6.321,5.383,10.284v244.113c0,3.964-2.41,5.785-5.383,4.069l-97.54-56.315
				C199.563,344.324,197.153,339.72,197.153,335.756z"/>
			<path style="fill:#80C5FF;" d="M302.595,156.765v236.459c0,3.518-2.483,4.909-5.527,3.151l-91.515-52.836
				c-3.064-1.769-5.548-6.054-5.548-9.57V97.534c0-3.516,2.484-4.932,5.548-3.163l16.719,9.653c0.698,0.403,1.311,1.287,1.505,2.168
				l0.775,3.533c0.583,3.384,3.238,7.146,6.347,8.941l40.803,23.558c3.109,1.795,5.786,1.111,6.347-1.613l0.775-2.638
				c0.193-0.658,0.807-0.833,1.504-0.431l16.741,9.665C300.113,148.964,302.595,153.247,302.595,156.765z"/>
			<g>
				<path style="fill:#666666;" d="M234.63,115.24c0,1.881-1.329,2.639-2.968,1.692c-1.64-0.947-2.969-3.239-2.969-5.12
					c0-1.881,1.329-2.639,2.969-1.692C233.301,111.066,234.63,113.358,234.63,115.24z"/>
				<path style="fill:#333333;" d="M233.288,114.465c0,1.031-0.728,1.446-1.626,0.928c-0.899-0.519-1.627-1.775-1.627-2.806
					c0-1.031,0.728-1.446,1.627-0.927C232.56,112.178,233.288,113.434,233.288,114.465z"/>
			</g>
			<path d="M265.563,128.918l-29.032-16.762c-0.478-0.276-0.866-1.017-0.866-1.654v-1.175c0-0.638,0.388-0.931,0.866-0.654
				l29.032,16.762c0.478,0.276,0.866,1.017,0.866,1.654v1.175C266.429,128.901,266.041,129.194,265.563,128.918z"/>
		</g>
		<g>
			<g style="enable-background:new    ;">
				<path style="fill:#E6E6E6;" d="M314.617,187.512c-0.576-0.335-1.373-0.287-2.255,0.222c-1.751,1.011-3.163,3.456-3.157,5.468
					l0.082,28.97c0.003,0.993,0.357,1.696,0.927,2.028l1.757,1.021c-0.571-0.331-0.924-1.035-0.927-2.028l-0.082-28.97
					c-0.006-2.012,1.406-4.458,3.157-5.468c0.881-0.509,1.679-0.556,2.254-0.222L314.617,187.512z"/>
				<g>
					<path style="fill:#BFBFBF;" d="M314.12,188.754c1.751-1.011,3.172-0.201,3.177,1.811l0.082,28.969
						c0.006,1.994-1.406,4.458-3.157,5.468c-1.751,1.011-3.172,0.183-3.177-1.811l-0.082-28.969
						C310.957,192.211,312.369,189.765,314.12,188.754z"/>
				</g>
				<g>
					<path style="fill:#CCCCCC;" d="M314.635,192.011c1.436-0.829,2.602-0.165,2.607,1.486l0.067,23.763
						c0.004,1.635-1.154,3.656-2.59,4.486c-1.436,0.829-2.602,0.15-2.606-1.486l-0.067-23.763
						C312.041,194.847,313.199,192.841,314.635,192.011z"/>
				</g>
			</g>
		</g>
	</g>
	<g>
		<g style="enable-background:new    ;">
			<path style="fill:#8482FF;" d="M229.382,138.447l-17.083-9.863c-0.555-0.321-1.058-0.35-1.421-0.139l-3.211,1.866
				c0.363-0.211,0.866-0.182,1.421,0.139l17.083,9.863c1.105,0.638,2,2.188,1.997,3.458l-0.056,19.63
				c-0.002,0.63-0.224,1.072-0.583,1.281l3.211-1.866c0.358-0.208,0.581-0.651,0.582-1.281l0.056-19.63
				C231.382,140.635,230.488,139.086,229.382,138.447z"/>
			<g>
				<path style="fill:#4D4BB7;" d="M226.171,140.314c1.105,0.638,2,2.188,1.997,3.458l-0.056,19.63
					c-0.004,1.27-0.904,1.778-2.009,1.14l-17.083-9.863c-1.105-0.638-1.996-2.181-1.992-3.451l0.056-19.63
					c0.004-1.27,0.9-1.786,2.005-1.148L226.171,140.314z"/>
			</g>
			<g>
				<g>
					<path style="fill:#FFFFFF;" d="M216.375,148.517l-1.605,4.308l-6.686-3.86l4.15-5.855c0.583-0.822,2.04,0.02,2.623,1.514
						L216.375,148.517z"/>
					<polygon style="fill:#E6E6E6;" points="219.01,155.272 214.771,152.825 216.375,148.517 					"/>
					<path style="fill:#FFFFFF;" d="M225.696,159.133l-6.686-3.86l-2.634-6.756l2.029-5.44c0.608-1.63,3.049-0.22,3.657,2.111
						L225.696,159.133z"/>
				</g>
				<path style="fill:#E6E6E6;" d="M216.406,140.861c0,0.946-0.668,1.327-1.493,0.851c-0.824-0.476-1.493-1.629-1.493-2.575
					c0-0.946,0.668-1.327,1.493-0.851C215.738,138.762,216.406,139.915,216.406,140.861z"/>
			</g>
		</g>
	</g>
	<g>
		<g style="enable-background:new    ;">
			<path style="fill:#8482FF;" d="M292.229,212.925l-50.604-29.252c-0.577-0.333-1.098-0.365-1.475-0.146l-3.211,1.866
				c0.377-0.219,0.898-0.188,1.475,0.146l50.603,29.252c1.147,0.662,2.071,2.262,2.067,3.585l-0.02,7.163
				c-0.002,0.656-0.233,1.118-0.606,1.335l3.211-1.866c0.373-0.217,0.605-0.679,0.606-1.335l0.021-7.163
				C294.299,215.187,293.376,213.587,292.229,212.925z"/>
			<g>
				<path style="fill:#4D4BB7;" d="M289.018,214.791c1.147,0.662,2.071,2.262,2.067,3.585l-0.02,7.163
					c-0.004,1.318-0.934,1.852-2.08,1.19l-50.603-29.252c-1.147-0.662-2.071-2.267-2.067-3.585l0.02-7.163
					c0.004-1.323,0.934-1.852,2.08-1.19L289.018,214.791z"/>
			</g>
			<path style="fill:#FFFFFF;" d="M287.624,219.176L240.5,191.824c-0.441-0.255-0.799,0.016-0.799,0.604l0,0
				c0,0.588,0.357,1.271,0.799,1.526l47.124,27.352c0.441,0.255,0.798-0.016,0.798-0.604l0,0
				C288.422,220.114,288.065,219.431,287.624,219.176z"/>
		</g>
	</g>
	<g>
		<g style="enable-background:new    ;">
			<path style="fill:#8482FF;" d="M292.229,234.451l-50.604-29.252c-0.577-0.333-1.098-0.365-1.475-0.145l-3.211,1.866
				c0.377-0.219,0.898-0.188,1.475,0.146l50.603,29.252c1.147,0.662,2.071,2.262,2.067,3.585l-0.02,7.163
				c-0.002,0.656-0.233,1.118-0.606,1.335l3.211-1.866c0.373-0.217,0.605-0.679,0.606-1.335l0.021-7.162
				C294.299,236.713,293.376,235.113,292.229,234.451z"/>
			<g>
				<path style="fill:#4D4BB7;" d="M289.018,236.317c1.147,0.662,2.071,2.262,2.067,3.585l-0.02,7.163
					c-0.004,1.318-0.934,1.852-2.08,1.19l-50.603-29.252c-1.147-0.662-2.071-2.267-2.067-3.585l0.02-7.163
					c0.004-1.323,0.934-1.852,2.08-1.19L289.018,236.317z"/>
			</g>
			<path style="fill:#FFFFFF;" d="M287.624,240.702L240.5,213.35c-0.441-0.255-0.799,0.016-0.799,0.604l0,0
				c0,0.588,0.357,1.271,0.799,1.526l47.124,27.352c0.441,0.255,0.798-0.016,0.798-0.604l0,0
				C288.422,241.64,288.065,240.957,287.624,240.702z"/>
		</g>
	</g>
	<g>
		<g style="enable-background:new    ;">
			<path style="fill:#8482FF;" d="M229.382,317.941l-17.083-9.863c-0.555-0.321-1.058-0.35-1.421-0.139l-3.211,1.866
				c0.363-0.211,0.866-0.182,1.421,0.139l17.083,9.863c1.105,0.638,2,2.188,1.997,3.458l-0.056,19.63
				c-0.002,0.63-0.224,1.072-0.583,1.28l3.211-1.866c0.358-0.208,0.581-0.651,0.582-1.281l0.056-19.63
				C231.382,320.129,230.488,318.579,229.382,317.941z"/>
			<g>
				<path style="fill:#4D4BB7;" d="M226.171,319.807c1.105,0.638,2,2.188,1.997,3.458l-0.056,19.63
					c-0.004,1.27-0.904,1.778-2.009,1.14l-17.083-9.863c-1.105-0.638-1.996-2.181-1.992-3.451l0.056-19.63
					c0.004-1.27,0.9-1.786,2.005-1.148L226.171,319.807z"/>
			</g>
			<g>
				<path style="fill:#FFFFFF;" d="M225.611,326.476v0.028l-8.138,0.683l-8.26-10.179l0,0c0-0.319,0.226-0.448,0.504-0.287
					l15.39,8.886C225.385,325.768,225.611,326.157,225.611,326.476z"/>
				<path style="fill:#FFFFFF;" d="M217.473,327.833l8.138-0.686v9.909c0,0.319-0.226,0.448-0.504,0.288l-15.39-8.886
					c-0.278-0.161-0.504-0.55-0.504-0.87v-9.94l8.138,10.033L217.473,327.833z"/>
			</g>
		</g>
	</g>
	<g>
		<g style="enable-background:new    ;">
			<path style="fill:#8482FF;" d="M291.525,269.953l-76.009-43.884c-0.772-0.446-1.473-0.488-1.979-0.194l-3.211,1.866
				c0.506-0.294,1.206-0.252,1.979,0.194l76.009,43.884c1.538,0.888,2.776,3.033,2.771,4.8l-0.016,5.72
				c-0.002,0.879-0.312,1.498-0.812,1.788l3.211-1.866c0.5-0.291,0.81-0.909,0.812-1.788l0.016-5.72
				C294.301,272.986,293.062,270.841,291.525,269.953z"/>
			<g>
				<path style="fill:#4D4BB7;" d="M288.314,271.819c1.538,0.888,2.776,3.033,2.771,4.8l-0.016,5.721
					c-0.005,1.767-1.251,2.482-2.789,1.594l-76.009-43.884c-1.533-0.885-2.776-3.038-2.771-4.804l0.016-5.721
					c0.005-1.767,1.256-2.475,2.789-1.589L288.314,271.819z"/>
			</g>
			<path style="fill:#FFFFFF;" d="M286.31,276.132l-73.163-42.496c-0.441-0.254-0.798,0.016-0.798,0.604l0,0
				c0,0.588,0.357,1.271,0.798,1.526l73.163,42.496c0.441,0.254,0.799-0.016,0.799-0.604l0,0
				C287.108,277.07,286.751,276.387,286.31,276.132z"/>
		</g>
	</g>
	<g>
		<g style="enable-background:new    ;">
			<path style="fill:#8482FF;" d="M291.525,295.522l-76.009-43.884c-0.772-0.446-1.473-0.487-1.979-0.193l-3.211,1.866
				c0.506-0.294,1.206-0.252,1.979,0.194l76.009,43.884c1.538,0.888,2.776,3.033,2.771,4.8l-0.016,5.72
				c-0.002,0.879-0.312,1.498-0.812,1.788l3.211-1.866c0.5-0.291,0.81-0.909,0.812-1.788l0.016-5.72
				C294.301,298.554,293.062,296.409,291.525,295.522z"/>
			<g>
				<path style="fill:#4D4BB7;" d="M288.314,297.388c1.538,0.888,2.776,3.033,2.771,4.8l-0.016,5.721
					c-0.005,1.767-1.251,2.482-2.789,1.594l-76.009-43.884c-1.533-0.885-2.776-3.038-2.771-4.804l0.016-5.721
					c0.005-1.767,1.256-2.475,2.789-1.589L288.314,297.388z"/>
			</g>
			<path style="fill:#FFFFFF;" d="M286.31,301.701l-73.163-42.496c-0.441-0.254-0.798,0.016-0.798,0.604l0,0
				c0,0.588,0.357,1.271,0.798,1.526l73.163,42.496c0.441,0.255,0.799-0.016,0.799-0.604l0,0
				C287.108,302.638,286.751,301.955,286.31,301.701z"/>
		</g>
	</g>
	<g>
		<g style="enable-background:new    ;">
			<path style="fill:#8482FF;" d="M291.525,321.09l-76.009-43.884c-0.772-0.446-1.473-0.487-1.979-0.194l-3.211,1.866
				c0.506-0.294,1.206-0.252,1.979,0.194l76.009,43.884c1.538,0.888,2.776,3.033,2.771,4.8l-0.016,5.72
				c-0.002,0.879-0.312,1.498-0.812,1.788l3.211-1.866c0.5-0.291,0.81-0.909,0.812-1.788l0.016-5.721
				C294.301,324.123,293.062,321.978,291.525,321.09z"/>
			<g>
				<path style="fill:#4D4BB7;" d="M288.314,322.956c1.538,0.888,2.776,3.033,2.771,4.8l-0.016,5.72
					c-0.005,1.767-1.251,2.482-2.789,1.594l-76.009-43.884c-1.533-0.885-2.776-3.038-2.771-4.804l0.016-5.72
					c0.005-1.767,1.256-2.475,2.789-1.59L288.314,322.956z"/>
			</g>
			<path style="fill:#FFFFFF;" d="M286.31,327.269l-73.163-42.496c-0.441-0.254-0.798,0.016-0.798,0.604l0,0
				c0,0.588,0.357,1.271,0.798,1.526l73.163,42.496c0.441,0.255,0.799-0.016,0.799-0.604l0,0
				C287.108,328.207,286.751,327.524,286.31,327.269z"/>
		</g>
	</g>
	<g>
		<g style="enable-background:new    ;">
			<path style="fill:#8482FF;" d="M260.571,335.914l-17.083-9.863c-0.555-0.32-1.058-0.35-1.421-0.139l-3.211,1.866
				c0.363-0.211,0.866-0.182,1.421,0.139l17.083,9.863c1.105,0.638,2,2.188,1.996,3.458l-0.056,19.63
				c-0.002,0.63-0.224,1.072-0.583,1.281l3.211-1.866c0.358-0.208,0.581-0.651,0.582-1.281l0.056-19.63
				C262.571,338.102,261.676,336.553,260.571,335.914z"/>
			<g>
				<path style="fill:#4D4BB7;" d="M257.36,337.781c1.105,0.638,2,2.188,1.996,3.458l-0.056,19.63
					c-0.004,1.27-0.904,1.779-2.01,1.14l-17.083-9.863c-1.105-0.638-1.996-2.181-1.992-3.451l0.056-19.63
					c0.004-1.27,0.9-1.786,2.005-1.147L257.36,337.781z"/>
			</g>
			<g>
				<g>
					<path style="fill:#FFFFFF;" d="M255.827,355.426l-14.11-8.146c-0.851-0.492-1.544-1.686-1.544-2.663v-7.775
						c0-0.977,0.693-1.372,1.544-0.88l14.11,8.146c0.851,0.492,1.544,1.686,1.544,2.663v7.775
						C257.371,355.522,256.679,355.917,255.827,355.426z M241.717,336.699c-0.496-0.287-0.9-0.056-0.9,0.514v7.775
						c0,0.57,0.404,1.267,0.9,1.553l14.11,8.146c0.497,0.287,0.901,0.056,0.901-0.513v-7.775c0-0.57-0.404-1.267-0.901-1.553
						L241.717,336.699z"/>
				</g>
				<g>
					<path style="fill:#FFFFFF;" d="M248.773,350.085c-2.069-1.195-3.753-4.098-3.753-6.473s1.684-3.334,3.753-2.139
						c2.069,1.195,3.752,4.098,3.752,6.473C252.525,350.32,250.842,351.28,248.773,350.085z M248.773,342.211
						c-1.715-0.99-3.109-0.195-3.109,1.772c0,1.967,1.395,4.373,3.109,5.363c1.714,0.99,3.109,0.194,3.109-1.773
						C251.882,345.607,250.487,343.201,248.773,342.211z"/>
				</g>
				<g>
					<path style="fill:#FFFFFF;" d="M253.227,343.209l-8.91-5.144v-1.864c0-0.641,0.455-0.9,1.013-0.578l6.883,3.974
						c0.559,0.323,1.013,1.107,1.013,1.748V343.209z M244.961,337.698l7.623,4.401v-1.126c0-0.234-0.166-0.52-0.37-0.638
						l-6.883-3.974c-0.204-0.118-0.37-0.023-0.37,0.211V337.698z"/>
				</g>
			</g>
		</g>
	</g>
	<g>
		<g style="enable-background:new    ;">
			<path style="fill:#8482FF;" d="M292.303,354.202l-17.083-9.863c-0.556-0.321-1.061-0.351-1.425-0.139l-3.211,1.866
				c0.364-0.212,0.869-0.182,1.425,0.139l17.083,9.863c1.105,0.638,1.996,2.185,1.992,3.456l-0.056,19.63
				c-0.002,0.631-0.224,1.075-0.582,1.283l3.211-1.866c0.359-0.208,0.581-0.652,0.583-1.283l0.056-19.63
				C294.299,356.387,293.409,354.84,292.303,354.202z"/>
			<g>
				<path style="fill:#4D4BB7;" d="M289.092,356.068c1.105,0.638,1.996,2.185,1.992,3.456l-0.056,19.63
					c-0.004,1.27-0.9,1.781-2.005,1.143l-17.083-9.863c-1.105-0.638-2-2.183-1.997-3.453L270,347.35
					c0.003-1.27,0.904-1.783,2.009-1.145L289.092,356.068z"/>
			</g>
			<path style="fill:#FFFFFF;" d="M280.589,355.64c-3.905-2.254-7.07-1.077-7.07,2.63c0,2.401,1.332,5.27,3.328,7.609
				c-0.093,0.626-0.499,1.939-2.285,0.931c0,0,2.466,2.719,4.803,1.44c0.398,0.296,0.806,0.573,1.224,0.814
				c3.905,2.254,7.07,1.077,7.07-2.63C287.659,362.727,284.494,357.895,280.589,355.64z"/>
		</g>
	</g>
	<g>
		<g style="enable-background:new    ;">
			<path style="fill:#8482FF;" d="M291.077,173.996l-48.487-27.994c-0.897-0.518-1.709-0.566-2.296-0.225l-3.211,1.866
				c0.587-0.341,1.4-0.293,2.296,0.225l48.487,27.994c1.783,1.029,3.224,3.526,3.218,5.579l-0.048,16.803
				c-0.003,1.018-0.362,1.734-0.942,2.071l3.211-1.866c0.58-0.337,0.939-1.053,0.942-2.071l0.048-16.803
				C294.302,177.522,292.86,175.025,291.077,173.996z"/>
			<g>
				<path style="fill:#4D4BB7;" d="M287.866,175.862c1.783,1.029,3.224,3.526,3.218,5.579l-0.048,16.803
					c-0.006,2.049-1.457,2.875-3.239,1.846l-48.487-27.994c-1.783-1.029-3.224-3.526-3.218-5.574l0.048-16.803
					c0.006-2.053,1.457-2.88,3.239-1.851L287.866,175.862z"/>
			</g>
			<g>
				<path style="fill:#FFFFFF;" d="M286.647,179.896l-45.717-26.502c-0.441-0.255-0.798,0.016-0.798,0.604l0,0
					c0,0.588,0.358,1.271,0.798,1.525l45.717,26.502c0.441,0.255,0.799-0.016,0.799-0.604l0,0
					C287.446,180.833,287.088,180.15,286.647,179.896z"/>
				<path style="fill:#FFFFFF;" d="M286.647,186.242L240.93,159.74c-0.441-0.255-0.798,0.016-0.798,0.604l0,0
					c0,0.588,0.358,1.271,0.798,1.526l45.717,26.502c0.441,0.255,0.799-0.016,0.799-0.604l0,0
					C287.446,187.179,287.088,186.496,286.647,186.242z"/>
				<path style="fill:#FFFFFF;" d="M286.647,192.588l-45.717-26.502c-0.441-0.255-0.798,0.016-0.798,0.604l0,0
					c0,0.588,0.358,1.271,0.798,1.526l45.717,26.502c0.441,0.255,0.799-0.016,0.799-0.604l0,0
					C287.446,193.525,287.088,192.842,286.647,192.588z"/>
			</g>
		</g>
	</g>
	<g>
		<g style="enable-background:new    ;">
			<path style="fill:#8482FF;" d="M229.382,182.373l-17.083-9.863c-0.555-0.321-1.058-0.35-1.421-0.139l-3.211,1.866
				c0.363-0.211,0.866-0.182,1.421,0.139l17.083,9.863c1.105,0.638,2,2.188,1.997,3.458l-0.056,19.63
				c-0.002,0.63-0.224,1.072-0.583,1.281l3.211-1.866c0.358-0.208,0.581-0.651,0.582-1.281l0.056-19.63
				C231.382,184.561,230.488,183.011,229.382,182.373z"/>
			<g>
				<path style="fill:#4D4BB7;" d="M226.171,184.239c1.105,0.638,2,2.188,1.997,3.458l-0.056,19.63
					c-0.004,1.27-0.904,1.779-2.009,1.14l-17.083-9.863c-1.105-0.638-1.996-2.181-1.992-3.451l0.056-19.63
					c0.004-1.27,0.9-1.786,2.005-1.148L226.171,184.239z"/>
			</g>
			<path style="fill:#FFFFFF;" d="M217.415,184.951c-3.224-1.861-5.835-0.373-5.835,3.327c0,3.696,2.611,8.203,5.835,10.064
				c3.221,1.86,5.835,0.37,5.835-3.327C223.25,191.315,220.637,186.81,217.415,184.951z M215.991,193.909v-6.02l4.543,5.634
				L215.991,193.909z"/>
		</g>
	</g>
	<g>
		<g style="enable-background:new    ;">
			<g>
				<polygon style="fill:#733118;" points="202.434,381.353 206.832,379.411 211.474,355.995 207.075,357.936 				"/>
			</g>
			<g>
				<polygon style="fill:#733118;" points="207.555,355.518 211.953,353.577 216.723,329.513 212.324,331.455 				"/>
			</g>
			<g>
				<polygon style="fill:#733118;" points="212.804,329.037 217.202,327.096 221.972,303.032 217.574,304.973 				"/>
			</g>
			<g>
				<polygon style="fill:#AB512E;" points="230.784,369.008 235.182,367.067 211.953,353.577 207.555,355.518 				"/>
			</g>
			<g>
				<polygon style="fill:#733118;" points="218.053,302.556 222.451,300.614 227.22,276.557 222.822,278.499 				"/>
			</g>
			<g>
				<polygon style="fill:#AB512E;" points="236.033,342.527 240.432,340.586 217.202,327.096 212.804,329.037 				"/>
			</g>
			<g>
				<polygon style="fill:#AB512E;" points="227.971,252.522 232.369,250.581 228.395,248.223 223.997,250.164 				"/>
			</g>
			<g>
				<polygon style="fill:#733118;" points="223.301,276.081 227.699,274.14 232.369,250.581 227.971,252.522 				"/>
			</g>
			<g>
				<polygon style="fill:#AB512E;" points="241.282,316.046 245.681,314.105 222.451,300.614 218.053,302.556 				"/>
			</g>
			<g>
				<polygon style="fill:#AB512E;" points="246.53,289.571 250.929,287.63 227.699,274.14 223.301,276.081 				"/>
			</g>
			<g>
				<polygon style="fill:#733118;" points="229.632,397.198 234.03,395.257 259.567,266.426 255.169,268.367 				"/>
			</g>
			<path style="fill:#8C3C1D;" d="M198.46,378.995l3.974,2.358l4.642-23.417l23.229,13.49l-4.642,23.417l3.969,2.355l25.537-128.831
				l-3.969-2.355l-4.67,23.559l-23.229-13.49l4.67-23.559l-3.974-2.358L198.46,378.995z M241.282,316.046l-23.229-13.49
				l4.769-24.057l23.229,13.491L241.282,316.046z M236.033,342.527l-23.23-13.49l4.77-24.063l23.229,13.491L236.033,342.527z
				 M207.555,355.518l4.77-24.063l23.23,13.491l-4.77,24.063L207.555,355.518z"/>
			<g>
				<polygon style="fill:#AB512E;" points="255.169,268.367 259.567,266.426 255.599,264.071 251.2,266.012 				"/>
			</g>
		</g>
	</g>
	<g>
		<g>
			<path style="fill:#FFB78C;" d="M256.977,229.506c-0.022-0.154-0.076-0.331-0.222-0.385c-0.133-0.049-0.278,0.029-0.394,0.112
				c-0.451,0.325-0.808,0.778-1.019,1.293c0.027-0.675,0.067-1.387,0.234-2.041c0.173-0.674,0.348-1.353,0.504-2.032
				c0.243-1.058,0.398-2.168,0.15-3.225c-0.094-0.4-0.295-0.835-0.689-0.951c-0.436-0.128-0.929,0.31-0.854,0.758
				c-0.24-0.059-0.537-0.101-0.697,0.087c-0.098,0.116-0.106,0.28-0.109,0.431c-0.013,0.654-0.015,1.308-0.006,1.963
				c-0.179-0.224-0.47-0.434-0.729-0.314c-0.257,0.119-0.286,0.468-0.271,0.751c0.068,1.289,0.268,2.582,0.122,3.864
				c-0.067,0.587-0.205,1.164-0.383,1.726c-0.306,0.967-1.824,4.095-2.44,4.624c-1.311,1.127-2.895,1.879-4.474,2.549
				c-2.616,1.112-5.345,1.923-8.045,2.8c-1.523,0.495-3.041,1.01-4.527,1.61c-0.439,0.177-0.79,0.127-1.238,0.025
				c-2.144-0.488-4.26-1.182-6.159-2.291c-0.853-0.499-1.659-1.083-2.387-1.753c-1.004-0.924-1.654-2.256-2.822-2.975
				c-1.357-0.835-3.042-1.378-4.327-0.063c-1.015,1.039-0.975,2.778-0.294,4.061c0.682,1.282,1.867,2.209,3.03,3.079
				c4.167,3.118,8.638,6.091,13.732,7.155c0.158,0.033,0.323,0.064,0.48,0.025c0.267-0.067,0.431-0.311,0.546-0.571
				c0.13,0.154,0.259,0.308,0.402,0.45c0.116,0.115,0.245,0.231,0.406,0.258c0.168,0.028,0.334-0.047,0.488-0.121
				c1.698-0.81,3.396-1.621,5.049-2.519c2.045-1.111,4.011-2.363,5.901-3.718c0.955-0.685,7.059-5.053,7.997-5.627
				c0.363-0.222,0.726-0.444,1.053-0.716c0.12-0.1,0.236-0.207,0.313-0.342c0.083-0.143,0.118-0.308,0.152-0.469
				c0.134-0.637,0.323-1.27,0.397-1.917c0.126-1.095,0.124-2.223,0.545-3.263c0.143-0.353,0.338-0.684,0.46-1.044
				C256.995,230.38,257.037,229.936,256.977,229.506z"/>
			<path style="fill:#4D4D4D;" d="M223.512,238.091c2.208,1.76,4.688,3.16,7.141,4.57c0.078,0.045,0.164,0.1,0.179,0.189
				c0.01,0.056-0.011,0.112-0.033,0.165c-0.778,1.933-1.918,3.776-3.59,5.02c-0.517,0.385-1.124,0.715-1.772,0.793
				c-0.263,0.031-0.656,0.051-0.9-0.073c-0.229-0.117-0.267-0.292-0.375-0.536c-0.211-0.479-0.45-0.946-0.709-1.4
				c-0.506-0.889-1.095-1.73-1.748-2.517c-1.178-1.42-2.57-2.674-3.552-4.236c-0.344-0.546-0.638-1.139-0.728-1.777
				c-0.074-0.53,0.008-1.104,0.238-1.588c0.242-0.509,0.243-0.851,0.239-1.432c0-0.066,0.002-0.139,0.046-0.188
				c0.062-0.068,0.17-0.056,0.26-0.037c0.989,0.206,1.975,0.5,2.831,1.038c0.619,0.389,1.153,0.896,1.706,1.375
				C222.995,237.671,223.252,237.884,223.512,238.091z"/>
			<path style="fill:#1F2125;" d="M203.012,356.667c0.035,0.931,0.301,1.963,1.101,2.441c0.405,0.242,0.891,0.305,1.363,0.312
				c0.862,0.014,1.727-0.139,2.531-0.448c0.869-0.334,1.66-0.844,2.517-1.209c3.649-1.555,7.948-0.305,11.744-1.456
				c0.899-0.272,1.878-0.836,1.978-1.769c0.061-0.567-0.234-1.115-0.601-1.55c-0.784-0.93-1.916-1.512-3.085-1.849
				c-1.169-0.337-2.389-0.449-3.598-0.585c-2.433-0.274-4.858-0.653-7.304-0.764c-1.491-0.068-3.055-0.023-4.455,0.55
				c-0.573,0.235-0.986,0.424-1.171,1.02c-0.247,0.791-0.499,1.583-0.689,2.391C203.118,354.705,202.976,355.684,203.012,356.667z"
				/>
			<path style="fill:#BFBFBF;" d="M215.122,278.123c0.265-1.979,0.447-4.004,0.048-5.96c-0.167-0.818-0.391-2.246-1.21-2.608
				c-0.962-0.425-2.049-0.543-3.089-0.438c-1.223,0.122-2.4,0.543-3.502,1.088c-1.937,0.958-3.686,2.319-5.011,4.026
				c-2.207,2.843-3.158,6.454-2.547,10.019c0.298,1.739,0.983,3.374,1.463,5.064c0.469,1.651,0.539,3.298,0.479,5.017
				c-0.074,2.15-0.399,4.282-0.634,6.421c-0.445,4.051-0.564,8.131-0.554,12.204c0.005,2.071,0.044,4.142,0.091,6.212
				c0.047,2.165-0.522,4.09-0.895,6.187c-0.773,4.349,0.217,8.489,1.267,12.677c1.114,4.446,1.838,8.977,2.665,13.482
				c0.044,0.242,0.093,0.492,0.239,0.69c0.15,0.202,0.384,0.323,0.616,0.419c1.216,0.5,2.597,0.478,3.878,0.182
				c1.281-0.296,2.486-0.852,3.68-1.403c-1.147-4.962-1.623-10.051-1.824-15.132c-0.122-3.077-0.144-6.157-0.155-9.236
				c-0.006-1.54-0.009-3.079-0.02-4.619c-0.005-0.693-0.072-1.413,0.014-2.102c0.011-0.086,0.024-0.172,0.039-0.256
				c0.107-0.596,0.314-1.172,0.434-1.765c0.167-0.823,0.133-1.774-0.454-2.374c-0.008-0.008-0.019-0.012-0.027-0.02
				c0.722-0.302,1.432-0.633,2.111-1.019c0.103-0.058,0.208-0.12,0.277-0.216c0.069-0.096,0.095-0.215,0.119-0.331
				c0.641-3.14,0.84-6.369,0.593-9.564c-0.117-1.516-0.479-2.958-0.623-4.465c-0.157-1.649-0.147-3.311-0.046-4.963
				C212.9,289.543,214.353,283.876,215.122,278.123z"/>
			<path style="fill:#4D4D4D;" d="M232.477,357.629c-0.509-1.135-2.683-1.472-3.642-1.77c-1.255-0.391-2.531-0.713-3.819-0.974
				c-2.582-0.523-5.211-0.802-7.843-0.892c-1.565-0.054-3.174-0.041-4.677,0.451c-0.516,0.168-1.114,0.396-1.364,0.915
				c-0.26,0.539-0.377,1.227-0.546,1.8c-0.255,0.87-0.472,1.753-0.584,2.653c-0.084,0.678-0.105,1.381,0.108,2.03
				c0.416,1.267,1.744,2.132,3.077,2.13c0.838-0.001,1.643-0.299,2.466-0.455c1.795-0.342,3.639-0.01,5.464,0.086
				c1.337,0.07,2.678,0.012,4.008-0.132c1.226-0.132,2.796-0.18,3.936-0.669c1.882-0.809,3.398-2.463,3.52-4.581
				C232.594,358.002,232.556,357.806,232.477,357.629z"/>
			<path style="fill:#F2F2F2;" d="M226.234,271.995c-0.95,1.454-2.969,1.731-4.697,1.557c-3.33-0.337-6.462-1.808-9.208-3.721
				c-0.775-0.54-1.554-1.13-2.476-1.337c-2.685-0.602-3.662,2.068-4.703,3.894c-1.466,2.571-2.865,5.251-3.473,8.171
				c-0.69,3.31-0.3,6.836,1.097,9.915c0.674,1.486,1.576,2.872,2.094,4.418c0.934,2.785,0.548,5.816,0.197,8.732
				c-0.65,5.403-1.143,10.86-0.832,16.286c-0.052,1.335,0.078,2.687,0.214,4.021c0.142,1.403,0.284,2.806,0.426,4.208
				c0.357,3.527,0.908,6.871,1.919,10.263c0.876,2.94,2.055,5.793,2.708,8.79c0.683,3.138,0.775,6.371,1.158,9.56
				c0.019,0.161,0.043,0.331,0.145,0.457c0.113,0.14,0.297,0.196,0.472,0.24c2.11,0.528,4.421,0.203,6.303-0.886
				c0.713-0.412,1.424-1.035,1.466-1.858c0.017-0.324-0.075-0.643-0.163-0.955c-2.467-8.71-3.03-18.104-2.287-27.108
				c0.175-2.118,1.058-3.897,1.818-5.845c0.806-2.067,1.58-4.147,2.286-6.25c1.421-4.229,2.574-8.563,3.155-12.993
				c0.58-4.422,0.589-8.904,1.154-13.329c0.617-4.832,1.898-9.611,1.8-14.481C226.792,273.111,226.719,272.401,226.234,271.995z"/>
			<path style="fill:#1F2125;" d="M204.628,254.063c1.144,4.009,3.255,8.024,2.455,12.116c-0.479,2.45-1.957,4.571-3.439,6.58
				c-0.139,0.189-0.284,0.389-0.316,0.621c-0.034,0.253,0.071,0.503,0.182,0.732c1.433,2.964,4.24,5.1,7.305,6.3
				c3.066,1.2,6.394,1.554,9.682,1.7c1.906,0.084,3.906,0.082,5.6-0.795c1.03-6.643,1.662-13.347,1.893-20.065
				c0.04-1.161,0.073-2.347,0.478-3.435c0.61-1.634,2.031-2.967,2.212-4.702c0.171-1.628-0.801-3.139-1.785-4.447
				c-3.778-5.024-8.355-9.384-12.909-13.717c-1.345-1.28-2.701-2.569-4.272-3.559c-0.927-0.585-1.837-0.551-2.761,0.087
				c-0.6,0.414-1.06,1-1.457,1.612c-0.723,1.114-1.264,2.336-1.748,3.572c-0.022,0.055-0.043,0.111-0.065,0.166
				C203.534,242.4,202.979,248.286,204.628,254.063z"/>
			<path style="fill:#FFB78C;" d="M208.171,231.741c-0.106,0.462-0.147,0.975,0.134,1.361c0.31,0.426,0.891,0.525,1.409,0.622
				c2.364,0.445,4.629,1.611,6.172,3.456c0.585,0.7,1.074,1.5,1.802,2.049c0.363,0.274,0.809,0.483,1.259,0.42
				c1.144-0.16,0.628-1.253,0.635-1.983c0.009-1.032,0.27-2.128,0.433-3.146c0.335-2.091,0.762-4.168,1.278-6.222
				c-0.876-0.222-1.664-0.693-2.439-1.158c-1.188-0.713-2.377-1.427-3.489-2.252c-0.649-0.482-1.281-1.007-2.025-1.325
				c-0.763-0.326-1.602-0.412-2.425-0.393c-0.695,0.016-1.402-0.088-1.694,0.698c-0.131,0.354-0.125,0.742-0.121,1.12
				c0.015,1.431-0.023,2.872-0.272,4.285c-0.128,0.723-0.355,1.396-0.56,2.097C208.236,231.488,208.201,231.612,208.171,231.741z"/>
			<path style="fill:#FFE5CC;" d="M226.84,218.798c0.072,0.338,0.135,0.697,0.019,1.023c-0.076,0.215-0.226,0.401-0.276,0.624
				c-0.075,0.339,0.096,0.678,0.262,0.982c0.52,0.956,1.039,1.912,1.559,2.868c-0.45,0.614-1.429,0.607-1.916,1.192
				c-0.247,0.297-0.324,0.696-0.392,1.076c-0.284,1.584-0.568,3.168-0.852,4.753c-1.549,0.367-3.118,0.655-4.696,0.862
				c-0.377,0.05-0.772,0.092-1.125-0.047c-0.3-0.119-0.536-0.357-0.751-0.598c-0.54-0.606-1.01-1.275-1.397-1.988
				c-0.176-0.325-0.356-0.68-0.685-0.849c-0.292-0.15-0.639-0.121-0.967-0.104c-3.63,0.186-7.304-1.917-8.887-5.189
				c-1.582-3.272-0.912-7.524,1.675-10.077c1.922-1.897,4.663-2.783,7.359-2.947c1.937-0.117,3.914,0.13,5.734,0.816
				c0.924,0.348,1.805,0.812,2.602,1.395c0.898,0.658,1.213,1.475,1.617,2.498C226.197,216.29,226.572,217.533,226.84,218.798z"/>
			<path style="fill:#733118;" d="M217.129,222.691c-1.137,0.637-0.118,2.351,0.286,3.199c0.451,0.947,0.87,1.92,1.084,2.947
				c0.167,0.799,0.289,1.849-0.008,2.634c-0.222,0.587-0.807,1.021-1.331,1.364c-0.624,0.409-1.323,0.691-2.038,0.904
				c-2.839,0.845-5.992,0.585-8.655-0.715c-1.895-0.925-3.527-2.369-4.701-4.119c-0.522-0.778-1.157-1.681-1.076-2.642
				c0.101-1.2,0.556-2.449,0.868-3.611c0.711-2.649,1.753-5.233,3.327-7.479c1.574-2.246,3.705-4.145,6.24-5.191
				c3.712-1.533,8.156-1.861,11.523,0.668c0.613,0.461,1.182,1.009,1.525,1.695c0.873,1.745-0.138,4.639-0.927,6.258
				c-0.898,1.842-2.539,3.447-4.565,3.752C218.154,222.434,217.594,222.43,217.129,222.691z"/>
			<path style="fill:#FFE5CC;" d="M264.266,231.178c-0.056-0.103-0.124-0.21-0.231-0.258c-0.107-0.049-0.262-0.009-0.292,0.104
				c0.145-1.316,0.095-2.654-0.146-3.956c-0.032-0.171-0.07-0.349-0.18-0.485c-0.11-0.135-0.313-0.211-0.464-0.124
				c-0.128,0.074-0.186,0.243-0.323,0.3c-0.11,0.046-0.234,0.006-0.353,0.001c-0.433-0.02-0.738,0.404-0.953,0.78
				c-1.832,3.216-3.293,6.645-4.342,10.195c-0.252,0.853-0.403,1.859-0.429,2.752c-0.006,0.21,0.005,0.423-0.048,0.627
				c-0.037,0.143-0.105,0.277-0.173,0.409c-0.205,0.4-11.286,11.737-12.253,12.381c-0.139,0.092-0.277,0.182-0.417,0.271
				c-1.626-0.794-3.406-1.27-5.057-2.027c-3.225-1.478-5.794-4.047-8.578-6.245c-1.686-1.331-3.517-2.543-5.548-3.277
				c-0.945-0.342-1.984-0.626-2.995-0.646c-0.729-0.014-1.115,0.326-1.621,0.809c-0.837,0.8-1.547,1.707-2.003,2.779
				c-0.521,1.227-0.776,2.611-0.316,3.876c0.439,1.209,1.22,2.278,2.146,3.161c1.252,1.195,2.764,2.078,4.282,2.908
				c5.818,3.182,11.98,5.757,18.383,7.478c0.726,0.195,1.484,0.381,2.224,0.242c2.672-0.499,12.156-13.633,15.135-17.679
				c1.24-1.185,2.256-2.606,2.898-4.197c0.321-0.796,0.556-1.623,0.784-2.449c0.349-1.263,0.683-2.531,1.002-3.802
				c0.167-0.667,0.332-1.342,0.334-2.03C264.733,232.418,264.582,231.756,264.266,231.178z"/>
			<path style="fill:#4D4D4D;" d="M229.231,258.102c1.328-1.39,2.662-2.799,3.714-4.416c0.763-1.173,2.115-3.306,1.386-4.762
				c-0.097-0.193-0.255-0.348-0.411-0.498c-2.75-2.637-5.902-4.852-9.315-6.545c-0.664-0.329-1.342-0.641-2.06-0.826
				c-1.312-0.338-2.704-0.237-4.025,0.064c-0.448,0.102-0.896,0.229-1.293,0.458c-2.428,1.399-2.446,5.235-1.727,7.555
				c0.833,2.688,2.845,4.908,5.236,6.391c2.391,1.483,5.145,2.288,7.914,2.788c0.089,0.016,0.181,0.032,0.27,0.011
				C229.045,258.294,229.142,258.196,229.231,258.102z"/>
		</g>
	</g>
	<g>
		<path style="fill:#FFC066;" d="M138.527,375.809l-62.641-0.113c-1.748-0.003-3.169-0.824-3.175-1.833l-0.035-6.427
			c-0.005-1.009,1.407-1.824,3.155-1.821l62.641,0.113c1.748,0.003,3.169,0.824,3.175,1.833l0.035,6.427
			C141.688,374.997,140.275,375.813,138.527,375.809z"/>
		<g>
			<g>
				<path style="fill:#6865F7;" d="M79.872,353.83c-1.305,0.183-2.567,0.93-3.17,2.101c-0.838,1.627-0.279,3.595-0.468,5.415
					c-0.146,1.397-0.739,2.709-0.992,4.091c-0.31,1.695-0.095,3.255,0.711,4.787c0.431,0.82,1.036,1.644,1.818,2.152
					c0.97,0.63,2.076,1.093,3.23,1.15c1.155,0.058,2.362-0.328,3.146-1.178c0.549-0.596,0.868-1.4,0.875-2.21
					c0.007-0.804-0.279-1.584-0.649-2.298c-0.384-0.742-0.969-1.446-1.257-2.231c-0.589-1.607,1.1-2.968,2.264-3.704
					c0.2-0.127,0.41-0.251,0.552-0.441c0.128-0.171,0.19-0.38,0.249-0.585c0.271-0.934,0.545-1.883,0.538-2.856
					c-0.007-0.972-0.335-1.988-1.083-2.609c-0.682-0.566-1.639-0.785-2.454-1.104C82.135,353.899,80.998,353.672,79.872,353.83z"/>
				<path style="fill:#333333;" d="M119.88,356.647c-0.411-2.322-1.31-4.525-2.169-6.721c-2.095-5.36-4.012-10.865-7.24-15.629
					c-2.72-4.014-6.285-7.371-9.819-10.692c-0.707-0.665-1.484-1.004-2.231-1.523c-0.365-0.254-1.432-1.874-0.904-2.323
					c-2.307,1.961-4.169,4.788-5.408,7.79c-0.729,1.767-1.241,3.594-1.501,5.342c-0.334,2.251-0.146,4.624,0.841,6.674
					c0.988,2.051,2.836,3.739,5.055,4.245c0.389,0.089,0.819,0.159,1.083,0.458c0.13,0.148,0.204,0.336,0.286,0.515
					c0.946,2.085,2.994,3.766,4.346,5.605c0.817,1.113,1.594,2.256,2.38,3.391c-0.55-0.126-1.103-0.242-1.662-0.322
					c-1.824-0.261-3.675-0.253-5.517-0.233c-0.802,0.008-1.605,0.019-2.407,0.035c-2.43,0.049-4.861,0.148-7.28,0.387
					c-1.209,0.12-2.41,0.286-3.61,0.474c-0.523,0.082-0.768,0.12-1.13,0.555c-0.302,0.362-0.514,0.797-0.644,1.248
					c-0.209,0.726-0.218,1.494-0.17,2.248c0.061,0.956,0.224,1.918,0.576,2.813c0.169,0.429,0.382,0.842,0.648,1.218
					c0.132,0.186,0.274,0.372,0.436,0.532c0.226,0.224,0.229,0.203,0.508,0.093c2.003-0.796,3.964-1.004,6.114-0.96
					c4.142,0.087,8.277,0.621,12.296,1.625c2.619,0.654,5.192,1.508,7.85,1.981c2.069,0.368,4.42,0.375,6.401-0.393
					C120.574,363.699,120.431,359.761,119.88,356.647z"/>
				<path style="fill:#9996FF;" d="M118.601,367.529c-0.019,0.074-0.038,0.147-0.056,0.221c-0.146,0.601-0.251,1.218-0.219,1.836
					c0.078,1.506,1.046,2.658,2.567,2.826c0.922,0.102,1.846-0.103,2.767-0.208c2.478-0.282,4.973,0.156,7.458,0.366
					c2.485,0.21,5.103,0.164,7.314-0.99c1.155-0.604,2.224-1.623,2.351-2.921c0.02-0.2,0.015-0.407-0.057-0.595
					c-0.109-0.28-0.354-0.48-0.599-0.653c-0.897-0.633-1.92-1.063-2.941-1.467c-1.149-0.454-2.309-0.88-3.482-1.269
					c-2.055-0.682-4.149-1.251-6.278-1.651c-1.062-0.2-2.132-0.357-3.207-0.465c-0.469-0.047-1.064,0.011-1.51-0.135
					c-0.326-0.107-0.469-0.463-0.712-0.68c-0.55,0.286-0.992,0.908-1.345,1.403C119.71,364.467,119.011,365.96,118.601,367.529z"/>
				<path style="fill:#424242;" d="M140.445,334.202c-0.088-1.144-0.301-2.625-1.239-3.41c-0.688-0.577-1.461-1.169-2.343-1.327
					c-0.265-0.119-0.538-0.22-0.813-0.305c-2.955-0.911-6.132-0.289-9.187,0.191c-4.859,0.763-9.768,1.147-14.674,1.5
					c-3.589,0.258-7.204,0.49-10.798,0.165c-1.162-0.105-3.316-0.033-4.016-1.062c-0.372-0.548-0.629-1.167-0.751-1.818
					c-0.058-0.31-0.274-1.637,0.024-1.859c-1.945,1.45-3.324,3.585-4.078,5.892c-0.433,1.325-0.732,2.802-0.814,4.297
					c-0.143,2.588,0.361,5.227,1.928,7.218c1.285,1.632,3.205,2.677,5.211,3.215c2.006,0.537,4.107,0.603,6.183,0.556
					c7.342-0.165,14.619-1.725,21.469-4.387c-0.499,1.08-0.966,2.174-1.364,3.294c-0.673,1.891-1.176,3.838-1.678,5.782
					c-0.764,3.012-1.553,6.017-2.33,9.025c-0.161,0.625-0.639,1.619-0.578,2.257c0.052,0.546,0.524,0.771,0.994,1.023
					c1.194,0.639,2.603,0.78,3.936,0.754c0.91-0.018,3.402,0.017,3.998-0.822c0.221-0.311,7.909-19.485,9.402-23.367
					C139.786,338.78,140.633,336.647,140.445,334.202z"/>
				<path style="fill:#FFB78C;" d="M155.749,335.289c-0.193-0.439-0.503-0.814-0.81-1.183c0.168-0.033,0.235-0.258,0.169-0.415
					c-0.066-0.158-0.217-0.261-0.361-0.355c-0.64-0.42-1.281-0.839-1.921-1.259c-0.399-0.261-0.8-0.524-1.237-0.715
					c-0.515-0.225-1.07-0.344-1.624-0.436c-1.004-0.166-2.087-0.18-3.066-0.463c-0.761-0.22-5.297-3.562-5.997-4.274
					c-2.198-2.237-4.237-4.627-6.465-6.834c-2.228-2.207-4.669-4.247-7.48-5.638c-0.655-0.324-1.341-0.615-2.068-0.686
					c-0.117-0.012-0.244-0.015-0.342,0.05c-0.123,0.081-0.163,0.24-0.188,0.384c-0.405,2.29,0.331,5.081,1.803,6.851
					c0.819,0.985,1.74,2.133,2.794,2.877c0.983,0.694,1.932,1.343,2.868,2.136c1.104,0.935,2.207,1.871,3.311,2.806
					c1.717,1.455,3.438,2.913,5.299,4.183c1.81,1.235,3.662,2.444,5.637,3.406c1.905,0.927,3.96,1.608,5.944,2.37
					c0.494,0.19,1.048,0.379,1.536,0.177c0.119-0.05,0.23-0.122,0.356-0.152c0.27-0.065,0.573,0.068,0.823-0.053
					c0.121-0.059,0.208-0.169,0.29-0.275c0.149-0.193,0.299-0.385,0.448-0.578c0.129-0.166,0.258-0.334,0.343-0.526
					C156.007,336.246,155.942,335.727,155.749,335.289z"/>
				<g>
					<path style="fill:#D9D9D9;" d="M126.824,304.487c-0.417-1.616-0.843-3.254-1.669-4.704c-0.827-1.45-2.117-2.714-3.732-3.137
						c-2.116-0.553-4.334,0.416-6.142,1.647c-1.703,1.159-3.224,2.565-4.665,4.037c-3.17,3.239-5.972,6.815-8.719,10.419
						c-1.508,1.978-3.002,3.966-4.482,5.965c-1.356,1.832-2.708,3.685-3.716,5.73c-0.277,0.563-0.716,1.342-0.511,1.978
						c0.216,0.672,0.863,1.359,1.326,1.874c1.051,1.169,2.352,2.106,3.76,2.798c2.242,1.101,4.736,1.604,7.225,1.809
						c1.349,0.111,2.712,0.137,4.05-0.063c1.175-0.176,2.871-0.462,3.681-1.368c0.99-1.109,5.175-6.109,6.419-7.374
						c0.077-0.079,0.16-0.16,0.266-0.19c0.159-0.044,0.322,0.04,0.47,0.113c1.302,0.642,2.876,0.601,4.231,0.081
						c1.355-0.52,2.506-1.482,3.439-2.594c1.028-1.226,1.826-2.674,2.124-4.246c0.199-1.047,0.165-2.148-0.143-3.171
						c-0.299-0.996-1.036-1.677-1.414-2.607c-0.378-0.929-0.516-2.029-0.766-3C127.512,307.153,127.168,305.82,126.824,304.487z"/>
				</g>
				<path style="fill:#FFB78C;" d="M123.521,295.652c-0.115,0.035-0.247,0.083-0.285,0.197c-0.033,0.1,0.023,0.207,0.08,0.296
					c0.33,0.513,0.759,0.954,1.122,1.444c0.838,1.127,1.313,2.489,1.573,3.869c0.259,1.38,0.313,2.789,0.381,4.191
					c0.031,0.641,0.118,1.379,0.655,1.732c0.057,0.038,0.122,0.07,0.191,0.071c0.16,0.001,0.264-0.163,0.338-0.304
					c0.571-1.082,1.304-2.094,2.252-2.867c0.948-0.773,2.126-1.296,3.348-1.341c-0.762-1.375-0.879-3.01-0.862-4.583
					c0.016-1.572,0.147-3.164-0.182-4.702c-0.122-0.567-0.316-1.139-0.708-1.566c-0.405-0.44-1.011-0.689-1.608-0.66
					c-1.325,0.063-1.976,1.199-2.785,2.046C126.069,294.48,124.852,295.242,123.521,295.652z"/>
				<path style="fill:#FFE5CC;" d="M139.278,285.067c1.836,0.626,3.354,1.964,4.386,3.587c0.846,1.331,1.477,2.846,1.296,4.444
					c-0.119,1.047-0.378,2.066-0.623,3.085c-0.234,0.972-0.588,2.037-1.47,2.506c-0.249,0.133-0.542,0.218-0.714,0.442
					c-0.132,0.171-0.169,0.394-0.203,0.607c-0.09,0.572-0.181,1.145-0.271,1.717c-0.081,0.512-0.265,1.135-0.775,1.227
					c-0.184,0.033-0.371-0.017-0.556-0.039c-0.856-0.104-1.676,0.378-2.327,0.943c-0.652,0.565-1.226,1.238-1.983,1.652
					c-1.342,0.733-3.161,0.45-4.216-0.658c-0.43-0.452-0.734-1.014-0.931-1.606c-0.063-0.189-0.118-0.387-0.246-0.539
					c-0.115-0.137-0.276-0.224-0.431-0.313c-2.903-1.67-4.457-5.041-4.935-8.355c-0.174-1.207-0.223-2.475,0.229-3.607
					c0.428-1.072,1.267-1.925,2.142-2.68c1.287-1.111,2.729-2.094,4.363-2.564c1.163-0.335,2.386-0.4,3.596-0.38
					C136.849,284.556,138.103,284.667,139.278,285.067z"/>
				<path style="fill:#733118;" d="M144.748,294.781c-0.195,0.31-0.482,0.584-0.907,0.863c-0.847,0.555-1.832,0.891-2.802,1.158
					c-1.377,0.38-2.802,0.583-4.16,1.027c-1.358,0.444-2.685,1.17-3.494,2.347c-0.79,1.149-0.723,2.51-1.311,3.749
					c-0.084,0.177-0.18,0.357-0.341,0.469c-0.151,0.106-0.341,0.137-0.524,0.159c-3.224,0.39-6.484-1.286-8.498-3.834
					c-2.013-2.548-2.892-5.85-3.004-9.095c-0.008-0.234-0.011-0.477,0.085-0.69c0.111-0.247,0.337-0.42,0.554-0.581
					c1.796-1.327,3.636-2.595,5.516-3.8c1.637-1.05,3.322-2.06,5.164-2.685c3.279-1.112,7.078-0.877,9.992,0.993
					c1.632,1.048,2.92,2.625,3.644,4.422C145.312,290.897,145.732,293.212,144.748,294.781z"/>
				<g>
					<path style="fill:#FFC066;" d="M163.923,380.064l-27.846-16.077c-0.534-0.309-0.467-0.847,0.15-1.204l27.361-15.797
						c0.617-0.356,1.551-0.395,2.085-0.087l27.846,16.077c0.535,0.309,0.467,0.848-0.15,1.204l-27.361,15.797
						C165.391,380.334,164.457,380.373,163.923,380.064z"/>
					<g>
						<polygon style="fill:#F2F2F2;" points="164.964,364.68 138.347,349.313 164.798,334.042 191.414,349.409 						"/>
						<polygon style="fill:#E6E6E6;" points="164.955,363.004 141.251,349.319 164.807,335.719 188.51,349.404 						"/>
						<polygon style="fill:#BFBFBF;" points="164.964,378.185 164.964,364.68 191.414,349.409 191.414,362.914 						"/>
						<polygon style="fill:#E6E6E6;" points="138.347,349.313 138.347,362.818 164.964,378.185 164.964,364.68 						"/>
					</g>
					<g>
						<g>
							<g style="enable-background:new    ;">
								<g>
									<polygon style="fill:#4D4D4D;" points="147.028,352.654 145.154,351.578 144.835,347.245 144.171,337.995 146.032,338.898 
										146.563,346.248 									"/>
								</g>
								<g>
									<polygon style="fill:#737373;" points="146.031,338.897 144.164,337.994 167.381,324.59 169.247,325.493 									"/>
								</g>
								<g>
									<polygon style="fill:#1F2125;" points="171.257,353.199 161.196,359.007 159.614,359.924 159.481,360.004 159.468,359.831 
										158.471,359.259 156.597,358.183 155.614,357.611 153.74,356.535 152.743,355.963 150.869,354.873 149.899,354.315 
										148.012,353.225 147.028,352.654 146.563,346.248 146.032,338.898 169.25,325.488 169.343,326.818 169.489,328.705 
										169.582,330.034 169.582,330.047 169.715,331.934 169.808,333.263 169.954,335.164 170.047,336.48 170.18,338.38 
										170.22,338.845 170.273,339.709 170.419,341.61 									"/>
								</g>
							</g>
						</g>
						<g>
							<g style="enable-background:new    ;">
								<g>
									<polygon style="fill:#4D4D4D;" points="149.899,354.315 148.012,353.225 147.467,345.73 147.028,339.696 148.902,340.6 
										149.195,344.733 									"/>
								</g>
								<g>
									<polygon style="fill:#737373;" points="148.896,340.6 147.03,339.697 170.246,326.293 172.113,327.196 									"/>
								</g>
								<g>
									<polygon style="fill:#1F2125;" points="174.128,354.9 162.525,361.598 161.342,360.921 159.614,359.924 159.481,360.004 
										159.468,359.831 158.471,359.259 156.597,358.183 155.614,357.611 153.74,356.535 152.743,355.963 150.869,354.873 
										149.899,354.315 149.195,344.733 148.902,340.6 169.489,328.705 172.107,327.19 172.2,328.532 172.346,330.419 
										172.44,331.735 172.572,333.649 172.679,334.965 172.812,336.865 172.905,338.181 172.905,338.194 173.051,340.081 
										173.051,340.095 173.077,340.493 									"/>
								</g>
							</g>
						</g>
						<g>
							<g style="enable-background:new    ;">
								<g>
									<polygon style="fill:#4D4D4D;" points="152.743,355.963 150.869,354.873 150.098,344.215 149.899,341.397 151.76,342.301 
										151.826,343.218 									"/>
								</g>
								<g>
									<polygon style="fill:#737373;" points="151.762,342.303 149.896,341.4 173.112,327.996 174.978,328.899 									"/>
								</g>
								<g>
									<polygon style="fill:#1F2125;" points="176.945,356.083 164.957,363.007 162.525,361.598 161.342,360.921 159.614,359.924 
										159.481,360.004 159.468,359.831 158.471,359.259 156.597,358.183 155.614,357.611 153.74,356.535 152.743,355.963 
										151.826,343.218 151.76,342.301 169.715,331.934 174.978,328.904 175.071,330.22 175.217,332.12 175.31,333.436 
										175.31,333.449 175.443,335.337 175.536,336.666 175.682,338.566 175.935,342.141 									"/>
								</g>
							</g>
						</g>
						<g>
							<g style="enable-background:new    ;">
								<g>
									<polygon style="fill:#4D4D4D;" points="155.614,357.611 153.74,356.535 152.757,343.098 154.63,344.002 									"/>
								</g>
								<g>
									<polygon style="fill:#737373;" points="154.628,344.006 152.762,343.103 175.978,329.699 177.844,330.602 									"/>
								</g>
								<g>
									<polygon style="fill:#1F2125;" points="179.59,354.555 176.945,356.083 164.957,363.007 162.525,361.598 161.342,360.921 
										159.614,359.924 159.481,360.004 159.468,359.831 158.471,359.259 156.597,358.183 155.614,357.611 154.63,344.002 
										166.897,336.931 169.954,335.164 172.572,333.649 175.217,332.12 177.849,330.605 177.942,331.921 178.088,333.822 
										178.181,335.137 178.314,337.051 178.805,343.803 									"/>
								</g>
							</g>
						</g>
						<g>
							<g style="enable-background:new    ;">
								<g>
									<polygon style="fill:#4D4D4D;" points="158.471,359.259 156.597,358.183 155.627,344.799 157.488,345.703 									"/>
								</g>
								<g>
									<polygon style="fill:#737373;" points="157.494,345.708 155.627,344.805 178.844,331.402 180.71,332.305 									"/>
								</g>
								<g>
									<polygon style="fill:#1F2125;" points="182.221,353.039 179.59,354.555 176.945,356.083 164.957,363.007 162.525,361.598 
										161.342,360.921 159.614,359.924 159.481,360.004 159.468,359.831 158.471,359.259 157.488,345.703 169.795,338.606 
										170.18,338.38 172.812,336.865 175.443,335.337 178.088,333.822 180.706,332.306 180.799,333.622 180.945,335.523 
										180.945,335.536 181.663,345.451 									"/>
								</g>
							</g>
						</g>
						<g>
							<g style="enable-background:new    ;">
								<g>
									<polygon style="fill:#4D4D4D;" points="161.342,360.921 159.614,359.924 159.481,360.004 159.468,359.831 158.498,346.514 
										160.359,347.418 161.196,359.007 									"/>
								</g>
								<g>
									<polygon style="fill:#737373;" points="160.359,347.411 158.493,346.508 181.709,333.104 183.575,334.008 									"/>
								</g>
								<g>
									<polygon style="fill:#1F2125;" points="184.839,351.511 182.221,353.039 179.59,354.555 176.945,356.083 164.957,363.007 
										162.525,361.598 161.342,360.921 161.196,359.007 160.359,347.418 170.419,341.61 172.719,340.281 173.051,340.095 
										175.39,338.739 175.682,338.566 178.314,337.051 180.945,335.536 183.577,334.008 184.52,347.099 									"/>
								</g>
								<g>
									<path style="fill:#F2F2F2;" d="M166.906,355.797l3.356,0.317v1.494l-5.64-0.493l5.64-6.99v1.494L166.906,355.797z"/>
									<path style="fill:#F2F2F2;" d="M172.801,358.184l-1.084,0.626c1.072-3.938,1.871-6.889,2.399-8.853l1.199-4.427
										l1.085-0.626L172.801,358.184z"/>
									<path style="fill:#F2F2F2;" d="M180.969,347.678l-3.369-0.31v-1.479l5.653,0.471l-5.653,7.012v-1.508L180.969,347.678z"/>
								</g>
							</g>
						</g>
					</g>
				</g>
				<path style="fill:#FFE5CC;" d="M162.397,349.342c-0.142-0.217-0.35-0.382-0.55-0.548c-0.573-0.478-1.104-1.006-1.603-1.562
					c-1.007-1.124-1.912-2.392-3.209-3.163c-0.976-0.58-11.284-5.749-13.953-7.074c-1.517-0.753-3.054-1.469-4.562-2.239
					c-1.763-0.901-2.519-2.6-3.276-4.325c-0.781-1.78-1.565-3.566-2.112-5.432c-0.487-1.648-0.778-3.346-1.137-5.025
					c-0.346-1.618-0.904-3.209-1.37-4.805c-0.302-1.036-0.617-2.086-1.198-2.996c-0.413-0.646-0.95-1.205-1.533-1.702
					c-0.742-0.633-1.654-1.196-2.624-1.096c-0.44,0.045-0.856,0.226-1.24,0.445c-2.625,1.497-3.422,4.414-3.096,7.25
					c0.308,2.678,1.567,5.137,2.713,7.577c1.116,2.376,2.146,4.795,3.359,7.125c0.603,1.158,1.251,2.293,1.974,3.38
					c1.077,1.618,2.131,2.974,3.667,4.154c0.807,0.62,1.739,1.049,2.651,1.489c1.188,0.572,11.77,4.28,13.553,4.936
					c0.194,0.071,0.381,0.162,0.572,0.24c0.187,0.177,0.454,0.247,0.708,0.315c0.203,0.055,0.373,0.156,0.558,0.236
					c0.195,0.093,0.389,0.188,0.584,0.283c0.281,0.182,0.547,0.386,0.788,0.641c0.502,0.53,0.851,1.18,1.281,1.765
					c0.242,0.33,0.511,0.643,0.838,0.892c0.457,0.348,1.005,0.554,1.553,0.724c0.614,0.191,1.24,0.343,1.873,0.456
					c0.894,0.159,1.819,0.238,2.707,0.046c0.683-0.148,1.331-0.457,1.876-0.895c0.123-0.099,0.244-0.208,0.309-0.352
					C162.606,349.845,162.539,349.559,162.397,349.342z"/>
				<path style="fill:#F2F2F2;" d="M120.442,314.117c-0.037,0.576-0.01,1.179,0.049,1.833c0.3,3.345,1.361,6.588,2.773,9.635
					c0.133,0.287,0.275,0.581,0.512,0.791c0.315,0.281,0.794,0.254,1.191,0.295c1.535,0.158,3.087-0.25,4.476-0.924
					c1.388-0.673,2.634-1.604,3.854-2.549c0.094-0.073,0.192-0.15,0.239-0.26c0.056-0.128,0.033-0.275,0.008-0.412
					c-0.447-2.453-1.163-4.853-2.067-7.176c-0.591-1.521-1.278-3.034-2.343-4.27c-0.792-0.919-1.819-1.681-2.987-2.041
					C123.034,308.081,120.624,311.31,120.442,314.117z"/>
			</g>
		</g>
	</g>
	<g>
		<g>
			<g style="enable-background:new    ;">
				<g>
					<path style="fill:#4D4BB7;" d="M109.947,249.666l-8.705,5.059c0.03-0.017,0.058-0.039,0.084-0.065l8.704-5.058
						C110.005,249.627,109.977,249.649,109.947,249.666z"/>
				</g>
				<g>
					<path style="fill:#4D4BB7;" d="M89.726,230.286l8.704-5.059c0.092-0.054,0.208-0.071,0.341-0.045l-8.705,5.059
						C89.933,230.215,89.818,230.233,89.726,230.286z"/>
				</g>
				<g>
					<polygon style="fill:#4D4BB7;" points="103.182,252.802 111.886,247.743 110.031,249.602 101.326,254.66 					"/>
				</g>
				<g>
					<polygon style="fill:#4D4BB7;" points="90.067,230.242 98.771,225.183 101.765,225.796 93.061,230.855 					"/>
				</g>
				<g>
					<path style="fill:#4D4BB7;" d="M122.52,259.689l-8.705,5.059c0.151-0.088,0.244-0.275,0.245-0.544l8.704-5.059
						C122.764,259.414,122.671,259.602,122.52,259.689z"/>
				</g>
				<g>
					<polygon style="fill:#4D4BB7;" points="114.071,260.599 122.775,255.54 122.765,259.145 114.06,264.204 					"/>
				</g>
				<g>
					<path style="fill:#4D4BB7;" d="M91.368,216.605l8.705-5.059c0.157-0.091,0.373-0.072,0.599,0.059
						c0.088,0.051,0.177,0.118,0.265,0.202l-8.704,5.058c-0.088-0.084-0.177-0.151-0.265-0.202
						C91.741,216.534,91.525,216.514,91.368,216.605z"/>
				</g>
				<g>
					<polygon style="fill:#4D4BB7;" points="92.232,216.866 100.936,211.808 103.918,214.645 95.214,219.703 					"/>
				</g>
				<g>
					<path style="fill:#4D4BB7;" d="M101.88,223.441l8.705-5.058c-2.231,1.296-3.614,4.052-3.625,7.969
						c-0.022,7.896,5.53,17.513,12.402,21.48l-8.705,5.059c-6.872-3.967-12.424-13.584-12.401-21.48
						C98.266,227.493,99.649,224.738,101.88,223.441z"/>
				</g>
				<g>
					<path style="fill:#4D4BB7;" d="M128.208,248.697l-8.705,5.059c-2.262,1.314-5.393,1.13-8.847-0.865l8.705-5.059
						C122.816,249.826,125.947,250.011,128.208,248.697z"/>
				</g>
				<g>
					<path style="fill:#4D4BB7;" d="M134.128,260.129l-8.705,5.059c0.287-0.167,0.339-0.668,0.09-1.21l8.705-5.059
						C134.467,259.46,134.415,259.962,134.128,260.129z"/>
				</g>
				<g>
					<polygon style="fill:#4D4BB7;" points="123.669,259.988 132.373,254.93 134.218,258.918 125.514,263.977 					"/>
				</g>
				<g>
					<path style="fill:#4D4BB7;" d="M126.181,257.497l8.705-5.058c-0.703,1.021-1.546,1.85-2.512,2.491l-8.705,5.059
						C124.635,259.347,125.478,258.518,126.181,257.497z"/>
				</g>
				<g>
					<polygon style="fill:#4D4BB7;" points="101.447,211.789 110.152,206.73 111.991,210.716 103.287,215.775 					"/>
				</g>
				<path style="fill:#9996FF;" d="M109.474,205.936c-0.173-0.1-0.348-0.139-0.499-0.099l-4.201,1.076
					c-0.038,0.01-0.073,0.024-0.105,0.043l-8.705,5.059c0.032-0.019,0.067-0.033,0.105-0.043l4.201-1.076
					c0.151-0.04,0.326-0.001,0.499,0.099c0.259,0.149,0.513,0.435,0.678,0.794l8.705-5.059
					C109.987,206.371,109.733,206.086,109.474,205.936z"/>
				<g>
					<path style="fill:#4D4BB7;" d="M138.725,255.53l-8.705,5.059c0.09-0.053,0.161-0.141,0.203-0.265l8.705-5.059
						C138.886,255.389,138.816,255.478,138.725,255.53z"/>
				</g>
				<g>
					<path style="fill:#4D4BB7;" d="M103.287,215.775l8.705-5.058c1.269,0.059,2.617,0.324,4.031,0.824l-8.705,5.059
						C105.903,216.099,104.556,215.833,103.287,215.775z"/>
				</g>
				<g>
					<polygon style="fill:#4D4BB7;" points="131.845,255.587 140.549,250.529 138.928,255.265 130.223,260.324 					"/>
				</g>
				<path style="fill:#9996FF;" d="M140.006,248.99l-2.988-2.84l-8.705,5.059l2.988,2.84c0.445,0.425,0.685,1.108,0.543,1.539
					l8.704-5.059C140.692,250.099,140.451,249.415,140.006,248.99z"/>
				<g>
					<path style="fill:#4D4BB7;" d="M128.328,246.342l8.705-5.058c0.082,0.845,0.125,1.686,0.123,2.502
						c-0.003,0.828-0.05,1.618-0.137,2.365l-8.705,5.059c0.087-0.747,0.134-1.537,0.136-2.365
						C128.453,248.028,128.41,247.186,128.328,246.342z"/>
				</g>
				<g>
					<path style="fill:#4D4BB7;" d="M114.184,220.562l8.705-5.058c1.413,1.133,2.758,2.422,4.029,3.83l-8.705,5.059
						C116.941,222.984,115.597,221.696,114.184,220.562z"/>
				</g>
				<g>
					<polygon style="fill:#4D4BB7;" points="114.194,216.951 122.899,211.892 122.889,215.504 114.184,220.562 					"/>
				</g>
				<path style="fill:#9996FF;" d="M122.057,210.434l-5.176-2.988c-0.235-0.136-0.448-0.149-0.601-0.06l-8.705,5.059
					c0.154-0.089,0.366-0.076,0.602,0.059l5.176,2.988c0.468,0.27,0.844,0.922,0.842,1.459l8.705-5.059
					C122.9,211.355,122.524,210.703,122.057,210.434z"/>
				<g>
					<path style="fill:#4D4BB7;" d="M123.747,232.236l8.705-5.059c0.96,1.747,1.795,3.552,2.49,5.379l-8.705,5.059
						C125.543,235.787,124.707,233.983,123.747,232.236z"/>
				</g>
				<g>
					<path style="fill:#4D4BB7;" d="M140.368,241.852l-8.705,5.059c0.216-0.126,0.306-0.448,0.209-0.863l8.705-5.059
						C140.674,241.404,140.584,241.726,140.368,241.852z"/>
				</g>
				<g>
					<polygon style="fill:#4D4BB7;" points="130.283,239.458 138.987,234.399 140.576,240.989 131.872,246.047 					"/>
				</g>
				<path style="fill:#9996FF;" d="M138.193,233.269c-0.087-0.05-0.176-0.086-0.263-0.102l-2.988-0.61l-8.705,5.059l2.988,0.61
					c0.087,0.017,0.176,0.052,0.263,0.102c0.353,0.204,0.683,0.655,0.795,1.13l8.704-5.059
					C138.875,233.923,138.546,233.473,138.193,233.269z"/>
				<g>
					<polygon style="fill:#4D4BB7;" points="125.609,230.387 134.313,225.328 132.452,227.177 123.747,232.236 					"/>
				</g>
				<g>
					<path style="fill:#6865F7;" d="M131.302,254.049c0.445,0.425,0.685,1.108,0.543,1.539l-1.621,4.736
						c-0.115,0.341-0.447,0.413-0.801,0.208c-0.086-0.05-0.174-0.116-0.259-0.198l-2.982-2.837c-0.702,1.021-1.546,1.85-2.512,2.491
						l1.845,3.989c0.275,0.599,0.183,1.149-0.19,1.252l-4.206,1.072c-0.148,0.041-0.321,0.002-0.493-0.098
						c-0.26-0.15-0.518-0.438-0.684-0.795l-1.833-3.989c-1.275-0.056-2.623-0.321-4.037-0.82l-0.01,3.605
						c-0.002,0.544-0.38,0.753-0.848,0.483l-5.176-2.989c-0.468-0.27-0.844-0.915-0.842-1.458l0.01-3.605
						c-1.413-1.133-2.757-2.422-4.023-3.833l-1.856,1.859c-0.167,0.165-0.424,0.156-0.684,0.006
						c-0.172-0.099-0.344-0.26-0.494-0.472l-4.181-5.914c-0.376-0.535-0.465-1.189-0.188-1.47l1.861-1.849
						c-0.96-1.753-1.795-3.552-2.484-5.376l-2.989-0.61c-0.087-0.017-0.175-0.053-0.262-0.103c-0.357-0.206-0.688-0.662-0.8-1.133
						l-1.589-6.59c-0.14-0.593,0.104-0.997,0.549-0.908l2.994,0.614c-0.077-0.842-0.125-1.686-0.123-2.515
						c0.002-0.815,0.055-1.602,0.136-2.352l-2.988-2.84c-0.445-0.425-0.685-1.109-0.543-1.539l1.621-4.736
						c0.114-0.345,0.445-0.414,0.801-0.209c0.088,0.051,0.177,0.118,0.265,0.202l2.982,2.837c0.697-1.024,1.54-1.86,2.506-2.495
						l-1.845-3.989c-0.275-0.6-0.183-1.15,0.195-1.249l4.2-1.076c0.151-0.04,0.326-0.001,0.499,0.099
						c0.259,0.149,0.513,0.435,0.678,0.794l1.839,3.986c1.269,0.058,2.617,0.324,4.032,0.824l0.01-3.612
						c0.001-0.537,0.38-0.753,0.847-0.483l5.176,2.988c0.468,0.27,0.844,0.922,0.842,1.459l-0.01,3.611
						c1.413,1.133,2.757,2.422,4.029,3.83l1.85-1.856c0.166-0.168,0.423-0.158,0.682-0.009c0.173,0.1,0.347,0.262,0.495,0.475
						l4.186,5.918c0.371,0.532,0.459,1.186,0.182,1.467l-1.861,1.849c0.96,1.747,1.795,3.552,2.49,5.379l2.989,0.61
						c0.087,0.017,0.175,0.052,0.262,0.102c0.353,0.204,0.683,0.655,0.795,1.13l1.589,6.59c0.139,0.593-0.104,0.997-0.55,0.908
						l-2.994-0.614c0.082,0.845,0.125,1.686,0.123,2.502c-0.002,0.828-0.05,1.618-0.136,2.365L131.302,254.049z M110.657,252.891
						c6.866,3.964,12.455,0.779,12.477-7.117c0.022-7.889-5.53-17.5-12.396-21.464c-6.871-3.967-12.46-0.789-12.482,7.101
						C98.233,239.306,103.785,248.923,110.657,252.891L110.657,252.891z"/>
				</g>
				<path style="fill:#9996FF;" d="M134.131,223.861l-4.186-5.918c-0.148-0.213-0.322-0.375-0.495-0.475
					c-0.218-0.126-0.434-0.153-0.596-0.059l-8.705,5.059c0.162-0.094,0.378-0.067,0.596,0.059c0.173,0.1,0.347,0.262,0.495,0.475
					l4.186,5.918c0.371,0.532,0.459,1.186,0.182,1.466l8.705-5.058C134.59,225.047,134.502,224.393,134.131,223.861z"/>
			</g>
		</g>
		<g>
			<g style="enable-background:new    ;">
				<g>
					<path style="fill:#4D4BB7;" d="M137.883,258.427l8.705-5.059c0.023-0.013,0.048-0.024,0.075-0.031l-8.705,5.059
						C137.931,258.403,137.906,258.413,137.883,258.427z"/>
				</g>
				<g>
					<path style="fill:#4D4BB7;" d="M157.633,269.259l-8.705,5.059c0.064-0.037,0.115-0.1,0.145-0.189l8.705-5.058
						C157.748,269.158,157.697,269.221,157.633,269.259z"/>
				</g>
				<g>
					<polygon style="fill:#4D4BB7;" points="137.958,258.396 146.663,253.337 148.487,252.867 139.782,257.925 					"/>
				</g>
				<g>
					<polygon style="fill:#4D4BB7;" points="149.773,272.069 158.477,267.011 157.778,269.07 149.073,274.128 					"/>
				</g>
				<g>
					<path style="fill:#4D4BB7;" d="M136.189,247.085l8.704-5.059c0.111-0.064,0.265-0.054,0.437,0.046l-8.705,5.059
						C136.454,247.031,136.299,247.021,136.189,247.085z"/>
				</g>
				<g>
					<polygon style="fill:#4D4BB7;" points="136.625,247.131 145.33,242.072 147.577,243.369 138.872,248.428 					"/>
				</g>
				<g>
					<path style="fill:#4D4BB7;" d="M166.731,273.193l-8.705,5.059c0.154-0.089,0.218-0.32,0.148-0.619l8.705-5.059
						C166.949,272.873,166.884,273.104,166.731,273.193z"/>
				</g>
				<g>
					<polygon style="fill:#4D4BB7;" points="157.488,274.78 166.193,269.721 166.879,272.574 158.174,277.633 					"/>
				</g>
				<g>
					<path style="fill:#4D4BB7;" d="M166.34,264.241l-8.705,5.059c-1.618,0.941-3.859,0.809-6.329-0.618l8.704-5.058
						C162.481,265.05,164.721,265.182,166.34,264.241z"/>
				</g>
				<g>
					<path style="fill:#4D4BB7;" d="M145.028,247.597l8.705-5.059c-1.599,0.929-2.59,2.904-2.598,5.711
						c-0.016,5.65,3.959,12.535,8.876,15.374l-8.704,5.058c-4.917-2.839-8.892-9.723-8.876-15.374
						C142.438,250.501,143.429,248.526,145.028,247.597z"/>
				</g>
				<g>
					<path style="fill:#9996FF;" d="M140.119,239.803l8.704-5.059c0.117-0.068,0.274-0.049,0.432,0.042
						c0.123,0.071,0.246,0.185,0.353,0.337l-8.705,5.059c-0.107-0.151-0.23-0.266-0.353-0.337
						C140.393,239.754,140.236,239.735,140.119,239.803z"/>
				</g>
				<g>
					<path style="fill:#4D4BB7;" d="M171.249,272.034l-8.705,5.059c0.022-0.013,0.042-0.028,0.06-0.047l8.705-5.059
						C171.291,272.006,171.271,272.022,171.249,272.034z"/>
				</g>
				<g>
					<polygon style="fill:#4D4BB7;" points="140.904,240.182 149.609,235.123 151.424,237.695 142.719,242.753 					"/>
				</g>
				<g>
					<path style="fill:#4D4BB7;" d="M142.719,242.753l8.705-5.058c0.746-0.361,1.57-0.578,2.456-0.637l-8.705,5.059
						C144.289,242.175,143.465,242.393,142.719,242.753z"/>
				</g>
				<g>
					<polygon style="fill:#4D4BB7;" points="164.794,274.855 173.499,269.797 171.31,271.988 162.605,277.047 					"/>
				</g>
				<path style="fill:#9996FF;" d="M173.367,268.754l-1.815-2.571l-8.705,5.059l1.815,2.571c0.27,0.383,0.33,0.852,0.132,1.042
					l8.705-5.059C173.697,269.607,173.636,269.137,173.367,268.754z"/>
				<g>
					<path style="fill:#4D4BB7;" d="M163.791,268.468l8.705-5.059c-0.201,1.051-0.519,1.976-0.944,2.774l-8.705,5.059
						C163.272,270.444,163.591,269.519,163.791,268.468z"/>
				</g>
				<g>
					<polygon style="fill:#4D4BB7;" points="149.169,240.215 157.874,235.156 158.56,238.015 149.855,243.074 					"/>
				</g>
				<path style="fill:#9996FF;" d="M157.305,234.344c-0.063-0.036-0.127-0.062-0.19-0.073l-3.53-0.722
					c-0.094-0.018-0.175-0.005-0.24,0.033l-8.705,5.058c0.065-0.038,0.147-0.051,0.24-0.033l3.53,0.722
					c0.063,0.012,0.127,0.037,0.19,0.074c0.253,0.146,0.489,0.47,0.569,0.812l8.705-5.058
					C157.794,234.814,157.558,234.49,157.305,234.344z"/>
				<g>
					<path style="fill:#4D4BB7;" d="M175.178,264.75l-8.705,5.059c0.108-0.063,0.175-0.196,0.175-0.385l8.705-5.059
						C175.353,264.554,175.286,264.688,175.178,264.75z"/>
				</g>
				<g>
					<path style="fill:#4D4BB7;" d="M149.855,243.074l8.705-5.059c0.501,0.225,1.003,0.469,1.521,0.768
						c0.512,0.296,1.014,0.631,1.515,0.985l-8.705,5.059c-0.501-0.354-1.002-0.689-1.515-0.985
						C150.858,243.543,150.356,243.299,149.855,243.074z"/>
				</g>
				<g>
					<path style="fill:#4D4BB7;" d="M162.882,258.971l8.705-5.059c0.419,1.286,0.732,2.575,0.925,3.854l-8.704,5.059
						C163.613,261.545,163.301,260.257,162.882,258.971z"/>
				</g>
				<g>
					<polygon style="fill:#4D4BB7;" points="166.661,265.165 175.366,260.107 175.354,264.366 166.649,269.424 					"/>
				</g>
				<path style="fill:#9996FF;" d="M174.759,259.063l-2.247-1.297l-8.705,5.059l2.247,1.297c0.338,0.195,0.607,0.655,0.606,1.044
					l8.705-5.059C175.367,259.718,175.097,259.258,174.759,259.063z"/>
				<g>
					<path style="fill:#4D4BB7;" d="M157.561,249.267l8.705-5.059c0.883,1.08,1.703,2.247,2.444,3.466l-8.705,5.059
						C159.264,251.514,158.443,250.347,157.561,249.267z"/>
				</g>
				<g>
					<polygon style="fill:#4D4BB7;" points="158.26,247.214 166.965,242.155 166.266,244.208 157.561,249.267 					"/>
				</g>
				<path style="fill:#9996FF;" d="M166.579,241.051l-3.522-3.35c-0.063-0.061-0.127-0.109-0.19-0.146
					c-0.16-0.092-0.313-0.106-0.425-0.041l-8.705,5.058c0.112-0.065,0.265-0.051,0.425,0.041c0.063,0.036,0.127,0.085,0.19,0.146
					l3.522,3.349c0.315,0.305,0.489,0.794,0.386,1.105l8.704-5.059C167.068,241.845,166.894,241.356,166.579,241.051z"/>
				<g>
					<polygon style="fill:#4D4BB7;" points="160.005,252.733 168.71,247.674 170.533,247.204 161.829,252.262 					"/>
				</g>
				<g>
					<path style="fill:#6865F7;" d="M166.055,264.122c0.338,0.195,0.607,0.655,0.606,1.044l-0.012,4.259
						c-0.001,0.382-0.272,0.536-0.61,0.341l-2.247-1.297c-0.2,1.051-0.519,1.976-0.944,2.774l1.815,2.571
						c0.27,0.383,0.331,0.852,0.133,1.042l-2.189,2.191c-0.12,0.119-0.305,0.112-0.492,0.004c-0.123-0.071-0.247-0.185-0.353-0.337
						l-1.815-2.571c-0.746,0.36-1.57,0.578-2.456,0.637l0.686,2.853c0.1,0.427-0.075,0.715-0.391,0.649l-3.53-0.715
						c-0.061-0.013-0.123-0.038-0.184-0.073c-0.255-0.147-0.494-0.473-0.575-0.813l-0.686-2.86
						c-0.502-0.225-1.003-0.475-1.515-0.771c-0.518-0.299-1.019-0.627-1.52-0.982l-0.7,2.059c-0.083,0.245-0.323,0.294-0.578,0.147
						c-0.061-0.035-0.123-0.082-0.184-0.139l-3.522-3.356c-0.315-0.299-0.489-0.788-0.386-1.098l0.7-2.053
						c-0.883-1.08-1.703-2.247-2.444-3.466l-1.824,0.471c-0.107,0.028-0.231-0.001-0.354-0.072
						c-0.188-0.108-0.372-0.315-0.491-0.572l-2.17-4.708c-0.196-0.418-0.133-0.816,0.138-0.886l1.824-0.471
						c-0.419-1.286-0.732-2.575-0.926-3.854l-2.247-1.297c-0.338-0.195-0.607-0.662-0.606-1.044l0.012-4.259
						c0.001-0.388,0.272-0.536,0.61-0.341l2.247,1.297c0.2-1.051,0.519-1.976,0.944-2.774l-1.815-2.571
						c-0.27-0.383-0.33-0.852-0.132-1.049l2.189-2.185c0.12-0.119,0.305-0.113,0.492-0.004c0.123,0.071,0.247,0.185,0.353,0.337
						l1.815,2.571c0.746-0.36,1.57-0.578,2.456-0.637l-0.686-2.853c-0.1-0.427,0.075-0.715,0.391-0.656l3.53,0.722
						c0.063,0.012,0.127,0.037,0.19,0.074c0.253,0.146,0.489,0.47,0.569,0.812l0.686,2.859c0.501,0.225,1.003,0.469,1.521,0.768
						c0.513,0.296,1.014,0.63,1.515,0.985l0.7-2.06c0.082-0.248,0.319-0.299,0.572-0.153c0.063,0.036,0.127,0.085,0.19,0.146
						l3.522,3.349c0.315,0.305,0.489,0.794,0.386,1.105l-0.7,2.053c0.883,1.08,1.703,2.247,2.444,3.466l1.824-0.471
						c0.107-0.028,0.231,0.001,0.354,0.072c0.188,0.108,0.372,0.315,0.491,0.572l2.17,4.702c0.196,0.424,0.133,0.822-0.138,0.893
						l-1.824,0.471c0.42,1.286,0.732,2.575,0.926,3.854L166.055,264.122z M151.306,268.682c4.911,2.836,8.912,0.556,8.928-5.094
						c0.016-5.65-3.959-12.535-8.87-15.37c-4.917-2.839-8.918-0.559-8.934,5.091C142.414,258.959,146.388,265.843,151.306,268.682
						L151.306,268.682z"/>
				</g>
				<path style="fill:#9996FF;" d="M173.548,252.549l-2.17-4.702c-0.119-0.256-0.303-0.463-0.491-0.572
					c-0.123-0.071-0.246-0.099-0.354-0.071l-8.705,5.059c0.107-0.028,0.231,0.001,0.354,0.072c0.188,0.108,0.372,0.315,0.491,0.572
					l2.17,4.702c0.177,0.382,0.143,0.742-0.063,0.862l8.705-5.059C173.691,253.291,173.724,252.931,173.548,252.549z"/>
			</g>
		</g>
	</g>
	<g>
		<g>
			<g>
				<g>
					<g>
						<polygon style="fill-rule:evenodd;clip-rule:evenodd;fill:#231F20;" points="394.249,336.831 394.249,335.164 
							391.932,333.827 391.932,335.494 						"/>
						<polygon style="fill-rule:evenodd;clip-rule:evenodd;fill:#231F20;" points="398.405,339.23 398.405,337.564 396.088,336.226 
							396.088,337.893 						"/>
						<path style="fill-rule:evenodd;clip-rule:evenodd;fill:#231F20;" d="M402.788,341.735l-0.703-2.047l-2.017-1.165l0.251,1.812
							C401.145,340.812,401.976,341.297,402.788,341.735z"/>
					</g>
					<g>
						<polygon style="fill-rule:evenodd;clip-rule:evenodd;fill:#231F20;" points="381.767,329.624 381.767,327.958 379.45,326.62 
							379.45,328.287 						"/>
						<polygon style="fill-rule:evenodd;clip-rule:evenodd;fill:#231F20;" points="385.922,332.024 385.922,330.357 
							383.605,329.019 383.605,330.686 						"/>
						<polygon style="fill-rule:evenodd;clip-rule:evenodd;fill:#231F20;" points="390.064,334.415 390.064,332.748 
							387.747,331.411 387.747,333.077 						"/>
					</g>
					<g>
						<path style="fill-rule:evenodd;clip-rule:evenodd;fill:#231F20;" d="M370.287,319.724l1.387-0.216l-0.005-2.318l-1.452-0.306
							C370.221,317.835,370.24,318.781,370.287,319.724z"/>
						<path style="fill-rule:evenodd;clip-rule:evenodd;fill:#231F20;" d="M373.156,324.581l0.873-1.093
							c-0.674-0.395-1.336-1.133-1.775-1.972l-1.223,0.638C371.566,323.171,372.355,324.073,373.156,324.581z"/>
						<polygon style="fill-rule:evenodd;clip-rule:evenodd;fill:#231F20;" points="377.553,327.191 377.635,325.572 
							375.617,324.407 375.073,325.756 						"/>
					</g>
					<g>
						<polygon style="fill-rule:evenodd;clip-rule:evenodd;fill:#231F20;" points="370.217,305.031 371.669,305.869 371.669,303.21 
							370.217,302.372 						"/>
						<polygon style="fill-rule:evenodd;clip-rule:evenodd;fill:#231F20;" points="370.217,309.799 371.669,310.638 
							371.669,307.979 370.217,307.14 						"/>
						<polygon style="fill-rule:evenodd;clip-rule:evenodd;fill:#231F20;" points="370.217,314.589 371.669,315.324 
							371.669,312.732 370.217,311.893 						"/>
					</g>
					<g>
						<polygon style="fill-rule:evenodd;clip-rule:evenodd;fill:#231F20;" points="370.217,290.707 371.669,291.546 
							371.669,289.133 370.217,287.913 						"/>
						<polygon style="fill-rule:evenodd;clip-rule:evenodd;fill:#231F20;" points="370.217,295.475 371.669,296.314 
							371.669,293.655 370.217,292.817 						"/>
						<polygon style="fill-rule:evenodd;clip-rule:evenodd;fill:#231F20;" points="370.217,300.228 371.669,301.067 
							371.669,298.408 370.217,297.57 						"/>
					</g>
					<g>
						<polygon style="fill-rule:evenodd;clip-rule:evenodd;fill:#231F20;" points="376.369,284.586 376.672,286.428 
							378.793,287.653 378.793,285.986 						"/>
						<path style="fill-rule:evenodd;clip-rule:evenodd;fill:#231F20;" d="M372.03,282.483l1.053,2.114
							c0.621,0.012,1.324,0.551,1.988,0.907l-0.664-2.032C373.6,283.06,372.774,282.478,372.03,282.483z"/>
						<path style="fill-rule:evenodd;clip-rule:evenodd;fill:#231F20;" d="M370.238,285.643l1.431,1.624
							c0.003-0.384-0.008-0.776,0.007-1.153c0.02-0.373,0.112-0.7,0.269-0.951l-1.294-1.987c-0.196,0.296-0.318,0.678-0.359,1.112
							C370.258,284.726,370.253,285.184,370.238,285.643z"/>
					</g>
					<g>
						<polygon style="fill-rule:evenodd;clip-rule:evenodd;fill:#231F20;" points="388.959,291.855 388.959,293.522 
							391.276,294.859 391.276,293.193 						"/>
						<polygon style="fill-rule:evenodd;clip-rule:evenodd;fill:#231F20;" points="384.803,289.456 384.803,291.122 387.12,292.46 
							387.12,290.793 						"/>
						<polygon style="fill-rule:evenodd;clip-rule:evenodd;fill:#231F20;" points="380.661,287.064 380.661,288.731 
							382.978,290.069 382.978,288.402 						"/>
					</g>
					<g>
						<path style="fill-rule:evenodd;clip-rule:evenodd;fill:#231F20;" d="M401.616,299.164l-0.493,1.38
							c0.672,0.394,1.345,0.763,2.017,1.178l0.91-1.057C403.254,300.133,402.441,299.652,401.616,299.164z"/>
						<polygon style="fill-rule:evenodd;clip-rule:evenodd;fill:#231F20;" points="397.286,296.663 397.286,298.329 399.522,299.62 
							399.647,298.026 						"/>
						<polygon style="fill-rule:evenodd;clip-rule:evenodd;fill:#231F20;" points="393.144,294.271 393.144,295.938 
							395.461,297.276 395.461,295.609 						"/>
					</g>
					<g>
						<polygon style="fill-rule:evenodd;clip-rule:evenodd;fill:#231F20;" points="406.75,312.89 405.298,312.052 405.298,314.711 
							406.75,315.549 						"/>
						<polygon style="fill-rule:evenodd;clip-rule:evenodd;fill:#231F20;" points="406.748,307.914 405.298,307.662 
							405.298,309.977 406.75,310.762 						"/>
						<path style="fill-rule:evenodd;clip-rule:evenodd;fill:#231F20;" d="M405.78,302.645l-1.195,0.688
							c0.486,0.82,0.739,1.75,0.713,2.506l1.4-0.159C406.692,304.759,406.368,303.64,405.78,302.645z"/>
					</g>
					<g>
						<polygon style="fill-rule:evenodd;clip-rule:evenodd;fill:#231F20;" points="406.75,327.214 405.298,326.376 405.298,329.034 
							406.75,329.873 						"/>
						<polygon style="fill-rule:evenodd;clip-rule:evenodd;fill:#231F20;" points="406.75,322.445 405.298,321.607 405.298,324.266 
							406.75,325.104 						"/>
						<polygon style="fill-rule:evenodd;clip-rule:evenodd;fill:#231F20;" points="406.75,317.693 405.298,316.854 405.298,319.513 
							406.75,320.351 						"/>
					</g>
					<g>
						<path style="fill-rule:evenodd;clip-rule:evenodd;fill:#231F20;" d="M406.438,341.695l-1.32-1.956
							c-0.253,0.571-0.787,0.837-1.422,0.723l1.017,2.116C405.471,342.688,406.115,342.366,406.438,341.695z"/>
						<path style="fill-rule:evenodd;clip-rule:evenodd;fill:#231F20;" d="M406.75,336.885l-1.452-1.167v2.315l1.424,1.666
							C406.751,338.787,406.751,337.835,406.75,336.885z"/>
						<polygon style="fill-rule:evenodd;clip-rule:evenodd;fill:#231F20;" points="406.75,332.016 405.298,331.178 405.298,333.836 
							406.75,334.675 						"/>
					</g>
				</g>
			</g>
			<g>
				<path style="fill:#4D4D4D;" d="M400.457,345.825l-21.388-12.348c-0.405-0.234-0.775-0.256-1.043-0.1l-3.492,2.03
					c0.268-0.156,0.638-0.134,1.043,0.1l21.388,12.348c0.812,0.469,1.464,1.598,1.461,2.531l-0.07,24.576
					c-0.001,0.456-0.163,0.778-0.424,0.93l3.493-2.03c0.261-0.152,0.423-0.474,0.424-0.93l0.07-24.576
					C401.921,347.423,401.269,346.294,400.457,345.825z"/>
				<g>
					<path d="M396.964,347.855c0.812,0.469,1.464,1.598,1.461,2.531l-0.07,24.576c-0.003,0.921-0.659,1.295-1.471,0.826
						l-21.388-12.348c-0.802-0.463-1.464-1.598-1.461-2.519l0.07-24.577c0.003-0.933,0.669-1.301,1.471-0.838L396.964,347.855z"/>
				</g>
			</g>
			<g>
				<path style="fill:#7981F2;" d="M400.457,303.968l-21.388-12.348c-0.405-0.234-0.775-0.255-1.043-0.1l-3.492,2.03
					c0.268-0.156,0.638-0.134,1.043,0.1l21.388,12.348c0.812,0.469,1.464,1.598,1.461,2.531l-0.07,24.576
					c-0.001,0.456-0.163,0.778-0.424,0.93l3.493-2.03c0.261-0.152,0.423-0.474,0.424-0.93l0.07-24.577
					C401.921,305.565,401.269,304.437,400.457,303.968z"/>
				<g>
					<path style="fill:#4D4BB7;" d="M396.964,305.997c0.812,0.469,1.464,1.598,1.461,2.531l-0.07,24.576
						c-0.003,0.921-0.659,1.295-1.471,0.826l-21.388-12.348c-0.802-0.463-1.464-1.598-1.461-2.519l0.07-24.577
						c0.003-0.933,0.669-1.301,1.471-0.838L396.964,305.997z"/>
				</g>
			</g>
			<g>
				<path style="fill:#FFFFFF;" d="M400.457,262.11l-21.388-12.348c-0.405-0.234-0.775-0.256-1.043-0.1l-3.492,2.03
					c0.268-0.156,0.638-0.134,1.043,0.1l21.388,12.348c0.812,0.469,1.464,1.598,1.461,2.531l-0.07,24.577
					c-0.001,0.456-0.163,0.778-0.424,0.93l3.493-2.03c0.261-0.152,0.423-0.474,0.424-0.93l0.07-24.577
					C401.921,263.708,401.269,262.579,400.457,262.11z"/>
				<g>
					<path style="fill:#E6E6E6;" d="M396.964,264.14c0.812,0.469,1.464,1.598,1.461,2.531l-0.07,24.577
						c-0.003,0.921-0.659,1.295-1.471,0.826l-21.388-12.348c-0.802-0.463-1.464-1.598-1.461-2.519l0.07-24.577
						c0.003-0.933,0.669-1.301,1.471-0.838L396.964,264.14z"/>
				</g>
			</g>
			<g>
				<path style="fill:#ADDAFF;" d="M400.457,222.881l-21.388-12.348c-0.405-0.234-0.775-0.256-1.043-0.1l-3.492,2.03
					c0.268-0.156,0.638-0.134,1.043,0.1l21.388,12.348c0.812,0.469,1.464,1.598,1.461,2.531l-0.07,24.576
					c-0.001,0.456-0.163,0.778-0.424,0.93l3.493-2.03c0.261-0.152,0.423-0.474,0.424-0.93l0.07-24.576
					C401.921,224.479,401.269,223.35,400.457,222.881z"/>
				<g>
					<path style="fill:#80C5FF;" d="M396.964,224.911c0.812,0.469,1.464,1.598,1.461,2.531l-0.07,24.577
						c-0.003,0.921-0.659,1.295-1.471,0.826l-21.388-12.348c-0.802-0.463-1.464-1.598-1.461-2.519l0.07-24.577
						c0.003-0.933,0.669-1.301,1.471-0.838L396.964,224.911z"/>
				</g>
			</g>
		</g>
		<path style="fill:#FFC066;" d="M394.786,391.841l-19.696-11.38c-1.237-0.714-1.082-1.962,0.346-2.786l1.919-1.104
			c1.428-0.825,3.589-0.914,4.826-0.2l19.696,11.38c1.237,0.714,1.082,1.962-0.346,2.786l-1.919,1.104
			C398.184,392.466,396.023,392.556,394.786,391.841z"/>
	</g>
</g>
</svg>
