<svg id="visual" viewBox="0 0 900 600" width="900" height="600" xmlns="http://www.w3.org/2000/svg" xmlns:xlink="http://www.w3.org/1999/xlink" version="1.1"><rect x="0" y="0" width="900" height="600" fill="#a78bfa"></rect><defs><linearGradient id="grad1_0" x1="33.3%" y1="0%" x2="100%" y2="100%"><stop offset="20%" stop-color="#a78bfa" stop-opacity="1"></stop><stop offset="80%" stop-color="#a78bfa" stop-opacity="1"></stop></linearGradient></defs><defs><linearGradient id="grad2_0" x1="0%" y1="0%" x2="66.7%" y2="100%"><stop offset="20%" stop-color="#a78bfa" stop-opacity="1"></stop><stop offset="80%" stop-color="#a78bfa" stop-opacity="1"></stop></linearGradient></defs><g transform="translate(900, 0)"><path d="M0 486.7C-52.6 455.2 -105.2 423.7 -168 405.6C-230.8 387.5 -303.7 382.7 -344.2 344.2C-384.7 305.6 -392.8 233.3 -411.1 170.3C-429.5 107.3 -458.1 53.6 -486.7 0L0 0Z" fill="#7c3aed"></path></g><g transform="translate(0, 600)"><path d="M0 -486.7C48.6 -449.1 97.2 -411.4 163.8 -395.4C230.4 -379.5 314.9 -385.3 344.2 -344.2C373.5 -303.1 347.6 -215.2 362.2 -150C376.7 -84.8 431.7 -42.4 486.7 0L0 0Z" fill="#7c3aed"></path></g></svg>