<svg id="visual" viewBox="0 0 900 600" width="900" height="600" xmlns="http://www.w3.org/2000/svg" xmlns:xlink="http://www.w3.org/1999/xlink" version="1.1"><g stroke-width="1" stroke-linejoin="bevel"><path d="M472 309L492 390L573 376Z" fill="#844df1" stroke="#844df1"></path><path d="M573 376L600 310L472 309Z" fill="#8044ef" stroke="#8044ef"></path><path d="M577 213L482 210L472 309Z" fill="#7c3aed" stroke="#7c3aed"></path><path d="M600 310L577 213L472 309Z" fill="#8855f2" stroke="#8855f2"></path><path d="M573 376L664 360L600 310Z" fill="#9165f5" stroke="#9165f5"></path><path d="M600 310L673 284L577 213Z" fill="#844df1" stroke="#844df1"></path><path d="M482 210L394 262L472 309Z" fill="#8044ef" stroke="#8044ef"></path><path d="M472 309L393 421L492 390Z" fill="#9165f5" stroke="#9165f5"></path><path d="M394 262L393 421L472 309Z" fill="#956df6" stroke="#956df6"></path><path d="M492 390L625 504L573 376Z" fill="#a78bfa" stroke="#a78bfa"></path><path d="M573 376L625 504L664 360Z" fill="#a284f9" stroke="#a284f9"></path><path d="M664 360L673 284L600 310Z" fill="#956df6" stroke="#956df6"></path><path d="M393 421L467 520L492 390Z" fill="#a78bfa" stroke="#a78bfa"></path><path d="M467 520L625 504L492 390Z" fill="#8044ef" stroke="#8044ef"></path><path d="M393 421L400 498L467 520Z" fill="#844df1" stroke="#844df1"></path><path d="M625 504L689 476L664 360Z" fill="#a78bfa" stroke="#a78bfa"></path><path d="M664 360L775 261L673 284Z" fill="#9e7cf8" stroke="#9e7cf8"></path><path d="M416 80L386 172L482 210Z" fill="#8044ef" stroke="#8044ef"></path><path d="M482 210L386 172L394 262Z" fill="#9a75f7" stroke="#9a75f7"></path><path d="M264 292L295 431L393 421Z" fill="#956df6" stroke="#956df6"></path><path d="M264 292L393 421L394 262Z" fill="#956df6" stroke="#956df6"></path><path d="M393 421L295 431L400 498Z" fill="#8d5df4" stroke="#8d5df4"></path><path d="M717 162L636 116L577 213Z" fill="#9a75f7" stroke="#9a75f7"></path><path d="M577 213L472 68L482 210Z" fill="#a78bfa" stroke="#a78bfa"></path><path d="M775 261L717 162L673 284Z" fill="#8044ef" stroke="#8044ef"></path><path d="M673 284L717 162L577 213Z" fill="#8855f2" stroke="#8855f2"></path><path d="M362 600L467 520L400 498Z" fill="#a78bfa" stroke="#a78bfa"></path><path d="M362 600L516 600L467 520Z" fill="#8d5df4" stroke="#8d5df4"></path><path d="M467 520L516 600L625 504Z" fill="#a284f9" stroke="#a284f9"></path><path d="M625 504L712 600L689 476Z" fill="#956df6" stroke="#956df6"></path><path d="M830 381L775 261L664 360Z" fill="#8855f2" stroke="#8855f2"></path><path d="M265 228L264 292L394 262Z" fill="#a284f9" stroke="#a284f9"></path><path d="M516 600L585 600L625 504Z" fill="#a78bfa" stroke="#a78bfa"></path><path d="M712 600L760 478L689 476Z" fill="#9a75f7" stroke="#9a75f7"></path><path d="M689 476L760 478L664 360Z" fill="#8044ef" stroke="#8044ef"></path><path d="M636 116L472 68L577 213Z" fill="#8d5df4" stroke="#8d5df4"></path><path d="M386 172L265 228L394 262Z" fill="#844df1" stroke="#844df1"></path><path d="M472 68L416 80L482 210Z" fill="#844df1" stroke="#844df1"></path><path d="M279 138L265 228L386 172Z" fill="#7c3aed" stroke="#7c3aed"></path><path d="M777 195L715 129L717 162Z" fill="#844df1" stroke="#844df1"></path><path d="M717 162L715 129L636 116Z" fill="#a284f9" stroke="#a284f9"></path><path d="M570 0L539 0L472 68Z" fill="#9165f5" stroke="#9165f5"></path><path d="M238 434L291 506L295 431Z" fill="#7c3aed" stroke="#7c3aed"></path><path d="M295 431L291 506L400 498Z" fill="#9165f5" stroke="#9165f5"></path><path d="M775 261L777 195L717 162Z" fill="#8044ef" stroke="#8044ef"></path><path d="M264 292L238 434L295 431Z" fill="#844df1" stroke="#844df1"></path><path d="M179 285L238 434L264 292Z" fill="#7c3aed" stroke="#7c3aed"></path><path d="M291 506L362 600L400 498Z" fill="#8d5df4" stroke="#8d5df4"></path><path d="M760 478L830 381L664 360Z" fill="#9a75f7" stroke="#9a75f7"></path><path d="M775 261L900 172L777 195Z" fill="#8044ef" stroke="#8044ef"></path><path d="M416 80L279 138L386 172Z" fill="#9e7cf8" stroke="#9e7cf8"></path><path d="M585 600L712 600L625 504Z" fill="#844df1" stroke="#844df1"></path><path d="M900 539L900 372L830 381Z" fill="#7c3aed" stroke="#7c3aed"></path><path d="M570 0L472 68L636 116Z" fill="#844df1" stroke="#844df1"></path><path d="M472 68L379 0L416 80Z" fill="#9a75f7" stroke="#9a75f7"></path><path d="M416 80L333 0L279 138Z" fill="#8044ef" stroke="#8044ef"></path><path d="M705 0L570 0L636 116Z" fill="#a78bfa" stroke="#a78bfa"></path><path d="M291 506L295 600L362 600Z" fill="#9e7cf8" stroke="#9e7cf8"></path><path d="M234 532L295 600L291 506Z" fill="#8855f2" stroke="#8855f2"></path><path d="M238 434L234 532L291 506Z" fill="#9a75f7" stroke="#9a75f7"></path><path d="M160 220L179 285L265 228Z" fill="#8044ef" stroke="#8044ef"></path><path d="M265 228L179 285L264 292Z" fill="#8d5df4" stroke="#8d5df4"></path><path d="M238 434L135 473L234 532Z" fill="#9165f5" stroke="#9165f5"></path><path d="M539 0L379 0L472 68Z" fill="#a284f9" stroke="#a284f9"></path><path d="M900 539L830 381L760 478Z" fill="#9e7cf8" stroke="#9e7cf8"></path><path d="M830 381L900 303L775 261Z" fill="#8044ef" stroke="#8044ef"></path><path d="M900 372L900 303L830 381Z" fill="#8855f2" stroke="#8855f2"></path><path d="M777 195L786 63L715 129Z" fill="#7c3aed" stroke="#7c3aed"></path><path d="M712 600L797 600L760 478Z" fill="#9a75f7" stroke="#9a75f7"></path><path d="M900 172L786 63L777 195Z" fill="#844df1" stroke="#844df1"></path><path d="M715 129L705 0L636 116Z" fill="#9a75f7" stroke="#9a75f7"></path><path d="M279 138L160 220L265 228Z" fill="#956df6" stroke="#956df6"></path><path d="M179 285L78 415L238 434Z" fill="#844df1" stroke="#844df1"></path><path d="M135 172L160 220L279 138Z" fill="#7c3aed" stroke="#7c3aed"></path><path d="M786 63L705 0L715 129Z" fill="#8044ef" stroke="#8044ef"></path><path d="M379 0L333 0L416 80Z" fill="#9a75f7" stroke="#9a75f7"></path><path d="M333 0L226 77L279 138Z" fill="#a284f9" stroke="#a284f9"></path><path d="M135 172L126 291L160 220Z" fill="#9a75f7" stroke="#9a75f7"></path><path d="M160 220L126 291L179 285Z" fill="#844df1" stroke="#844df1"></path><path d="M900 303L900 172L775 261Z" fill="#7c3aed" stroke="#7c3aed"></path><path d="M78 415L135 473L238 434Z" fill="#844df1" stroke="#844df1"></path><path d="M234 532L203 600L295 600Z" fill="#9e7cf8" stroke="#9e7cf8"></path><path d="M135 473L203 600L234 532Z" fill="#9165f5" stroke="#9165f5"></path><path d="M226 77L135 172L279 138Z" fill="#a78bfa" stroke="#a78bfa"></path><path d="M797 600L900 539L760 478Z" fill="#8044ef" stroke="#8044ef"></path><path d="M900 172L900 85L786 63Z" fill="#956df6" stroke="#956df6"></path><path d="M786 63L836 0L705 0Z" fill="#9165f5" stroke="#9165f5"></path><path d="M126 291L78 415L179 285Z" fill="#a284f9" stroke="#a284f9"></path><path d="M135 473L84 600L203 600Z" fill="#7c3aed" stroke="#7c3aed"></path><path d="M0 314L78 415L126 291Z" fill="#8044ef" stroke="#8044ef"></path><path d="M797 600L900 600L900 539Z" fill="#9165f5" stroke="#9165f5"></path><path d="M900 85L836 0L786 63Z" fill="#9a75f7" stroke="#9a75f7"></path><path d="M333 0L196 0L226 77Z" fill="#7c3aed" stroke="#7c3aed"></path><path d="M226 77L103 60L135 172Z" fill="#9e7cf8" stroke="#9e7cf8"></path><path d="M900 85L900 0L836 0Z" fill="#8855f2" stroke="#8855f2"></path><path d="M196 0L103 60L226 77Z" fill="#a78bfa" stroke="#a78bfa"></path><path d="M0 199L0 314L126 291Z" fill="#7c3aed" stroke="#7c3aed"></path><path d="M0 532L84 600L135 473Z" fill="#a284f9" stroke="#a284f9"></path><path d="M196 0L133 0L103 60Z" fill="#7c3aed" stroke="#7c3aed"></path><path d="M0 199L126 291L135 172Z" fill="#956df6" stroke="#956df6"></path><path d="M78 415L0 532L135 473Z" fill="#8044ef" stroke="#8044ef"></path><path d="M0 314L0 381L78 415Z" fill="#9165f5" stroke="#9165f5"></path><path d="M103 60L0 199L135 172Z" fill="#8044ef" stroke="#8044ef"></path><path d="M0 63L0 199L103 60Z" fill="#9e7cf8" stroke="#9e7cf8"></path><path d="M0 381L0 532L78 415Z" fill="#844df1" stroke="#844df1"></path><path d="M0 532L0 600L84 600Z" fill="#a78bfa" stroke="#a78bfa"></path><path d="M0 0L0 63L103 60Z" fill="#9a75f7" stroke="#9a75f7"></path><path d="M133 0L0 0L103 60Z" fill="#956df6" stroke="#956df6"></path></g></svg>