<svg id="visual" viewBox="0 0 900 600" width="900" height="600" xmlns="http://www.w3.org/2000/svg" xmlns:xlink="http://www.w3.org/1999/xlink" version="1.1"><path d="M0 43L13.7 51C27.3 59 54.7 75 82 78C109.3 81 136.7 71 163.8 67C191 63 218 65 245.2 72C272.3 79 299.7 91 327 88C354.3 85 381.7 67 409 64C436.3 61 463.7 73 491 74C518.3 75 545.7 65 573 66C600.3 67 627.7 79 654.8 82C682 85 709 79 736.2 72C763.3 65 790.7 57 818 58C845.3 59 872.7 69 886.3 74L900 79L900 0L886.3 0C872.7 0 845.3 0 818 0C790.7 0 763.3 0 736.2 0C709 0 682 0 654.8 0C627.7 0 600.3 0 573 0C545.7 0 518.3 0 491 0C463.7 0 436.3 0 409 0C381.7 0 354.3 0 327 0C299.7 0 272.3 0 245.2 0C218 0 191 0 163.8 0C136.7 0 109.3 0 82 0C54.7 0 27.3 0 13.7 0L0 0Z" fill="#a87af6"></path><path d="M0 109L13.7 113C27.3 117 54.7 125 82 128C109.3 131 136.7 129 163.8 135C191 141 218 155 245.2 158C272.3 161 299.7 153 327 140C354.3 127 381.7 109 409 113C436.3 117 463.7 143 491 157C518.3 171 545.7 173 573 168C600.3 163 627.7 151 654.8 155C682 159 709 179 736.2 185C763.3 191 790.7 183 818 174C845.3 165 872.7 155 886.3 150L900 145L900 77L886.3 72C872.7 67 845.3 57 818 56C790.7 55 763.3 63 736.2 70C709 77 682 83 654.8 80C627.7 77 600.3 65 573 64C545.7 63 518.3 73 491 72C463.7 71 436.3 59 409 62C381.7 65 354.3 83 327 86C299.7 89 272.3 77 245.2 70C218 63 191 61 163.8 65C136.7 69 109.3 79 82 76C54.7 73 27.3 57 13.7 49L0 41Z" fill="#935cf2"></path><path d="M0 271L13.7 282C27.3 293 54.7 315 82 309C109.3 303 136.7 269 163.8 259C191 249 218 263 245.2 285C272.3 307 299.7 337 327 337C354.3 337 381.7 307 409 300C436.3 293 463.7 309 491 332C518.3 355 545.7 385 573 397C600.3 409 627.7 403 654.8 397C682 391 709 385 736.2 367C763.3 349 790.7 319 818 303C845.3 287 872.7 285 886.3 284L900 283L900 143L886.3 148C872.7 153 845.3 163 818 172C790.7 181 763.3 189 736.2 183C709 177 682 157 654.8 153C627.7 149 600.3 161 573 166C545.7 171 518.3 169 491 155C463.7 141 436.3 115 409 111C381.7 107 354.3 125 327 138C299.7 151 272.3 159 245.2 156C218 153 191 139 163.8 133C136.7 127 109.3 129 82 126C54.7 123 27.3 115 13.7 111L0 107Z" fill="#7c3aed"></path><path d="M0 409L13.7 407C27.3 405 54.7 401 82 386C109.3 371 136.7 345 163.8 340C191 335 218 351 245.2 377C272.3 403 299.7 439 327 438C354.3 437 381.7 399 409 399C436.3 399 463.7 437 491 459C518.3 481 545.7 487 573 494C600.3 501 627.7 509 654.8 501C682 493 709 469 736.2 447C763.3 425 790.7 405 818 392C845.3 379 872.7 373 886.3 370L900 367L900 281L886.3 282C872.7 283 845.3 285 818 301C790.7 317 763.3 347 736.2 365C709 383 682 389 654.8 395C627.7 401 600.3 407 573 395C545.7 383 518.3 353 491 330C463.7 307 436.3 291 409 298C381.7 305 354.3 335 327 335C299.7 335 272.3 305 245.2 283C218 261 191 247 163.8 257C136.7 267 109.3 301 82 307C54.7 313 27.3 291 13.7 280L0 269Z" fill="#6b30cf"></path><path d="M0 601L13.7 601C27.3 601 54.7 601 82 601C109.3 601 136.7 601 163.8 601C191 601 218 601 245.2 601C272.3 601 299.7 601 327 601C354.3 601 381.7 601 409 601C436.3 601 463.7 601 491 601C518.3 601 545.7 601 573 601C600.3 601 627.7 601 654.8 601C682 601 709 601 736.2 601C763.3 601 790.7 601 818 601C845.3 601 872.7 601 886.3 601L900 601L900 365L886.3 368C872.7 371 845.3 377 818 390C790.7 403 763.3 423 736.2 445C709 467 682 491 654.8 499C627.7 507 600.3 499 573 492C545.7 485 518.3 479 491 457C463.7 435 436.3 397 409 397C381.7 397 354.3 435 327 436C299.7 437 272.3 401 245.2 375C218 349 191 333 163.8 338C136.7 343 109.3 369 82 384C54.7 399 27.3 403 13.7 405L0 407Z" fill="#5a27b1"></path></svg>