<svg id="visual" viewBox="0 0 900 600" width="900" height="600" xmlns="http://www.w3.org/2000/svg" xmlns:xlink="http://www.w3.org/1999/xlink" version="1.1"><rect x="0" y="0" width="900" height="600" fill="#a78bfa"></rect><path d="M0 279L8.8 274C17.7 269 35.3 259 53 269.3C70.7 279.7 88.3 310.3 106 311.3C123.7 312.3 141.3 283.7 159 287.5C176.7 291.3 194.3 327.7 212 340.5C229.7 353.3 247.3 342.7 265 337C282.7 331.3 300.3 330.7 318 326.5C335.7 322.3 353.3 314.7 371 302.5C388.7 290.3 406.3 273.7 423.8 277.7C441.3 281.7 458.7 306.3 476.2 305.2C493.7 304 511.3 277 529 276C546.7 275 564.3 300 582 315.7C599.7 331.3 617.3 337.7 635 342.2C652.7 346.7 670.3 349.3 688 338.7C705.7 328 723.3 304 741 296.3C758.7 288.7 776.3 297.3 794 305.5C811.7 313.7 829.3 321.3 847 314C864.7 306.7 882.3 284.3 891.2 273.2L900 262L900 601L891.2 601C882.3 601 864.7 601 847 601C829.3 601 811.7 601 794 601C776.3 601 758.7 601 741 601C723.3 601 705.7 601 688 601C670.3 601 652.7 601 635 601C617.3 601 599.7 601 582 601C564.3 601 546.7 601 529 601C511.3 601 493.7 601 476.2 601C458.7 601 441.3 601 423.8 601C406.3 601 388.7 601 371 601C353.3 601 335.7 601 318 601C300.3 601 282.7 601 265 601C247.3 601 229.7 601 212 601C194.3 601 176.7 601 159 601C141.3 601 123.7 601 106 601C88.3 601 70.7 601 53 601C35.3 601 17.7 601 8.8 601L0 601Z" fill="#7c3aed"></path><path d="M0 336L8.8 340.7C17.7 345.3 35.3 354.7 53 363.5C70.7 372.3 88.3 380.7 106 378C123.7 375.3 141.3 361.7 159 354C176.7 346.3 194.3 344.7 212 340.2C229.7 335.7 247.3 328.3 265 328.2C282.7 328 300.3 335 318 335.8C335.7 336.7 353.3 331.3 371 332.3C388.7 333.3 406.3 340.7 423.8 343.2C441.3 345.7 458.7 343.3 476.2 351.2C493.7 359 511.3 377 529 380.7C546.7 384.3 564.3 373.7 582 362.7C599.7 351.7 617.3 340.3 635 338.7C652.7 337 670.3 345 688 359.2C705.7 373.3 723.3 393.7 741 391.8C758.7 390 776.3 366 794 361.7C811.7 357.3 829.3 372.7 847 366.5C864.7 360.3 882.3 332.7 891.2 318.8L900 305L900 601L891.2 601C882.3 601 864.7 601 847 601C829.3 601 811.7 601 794 601C776.3 601 758.7 601 741 601C723.3 601 705.7 601 688 601C670.3 601 652.7 601 635 601C617.3 601 599.7 601 582 601C564.3 601 546.7 601 529 601C511.3 601 493.7 601 476.2 601C458.7 601 441.3 601 423.8 601C406.3 601 388.7 601 371 601C353.3 601 335.7 601 318 601C300.3 601 282.7 601 265 601C247.3 601 229.7 601 212 601C194.3 601 176.7 601 159 601C141.3 601 123.7 601 106 601C88.3 601 70.7 601 53 601C35.3 601 17.7 601 8.8 601L0 601Z" fill="#7535e2"></path><path d="M0 400L8.8 392.3C17.7 384.7 35.3 369.3 53 361.3C70.7 353.3 88.3 352.7 106 352.8C123.7 353 141.3 354 159 355.8C176.7 357.7 194.3 360.3 212 369.8C229.7 379.3 247.3 395.7 265 410.3C282.7 425 300.3 438 318 439C335.7 440 353.3 429 371 421.2C388.7 413.3 406.3 408.7 423.8 401.8C441.3 395 458.7 386 476.2 378.7C493.7 371.3 511.3 365.7 529 370.7C546.7 375.7 564.3 391.3 582 393.7C599.7 396 617.3 385 635 386.5C652.7 388 670.3 402 688 401.8C705.7 401.7 723.3 387.3 741 385C758.7 382.7 776.3 392.3 794 401.5C811.7 410.7 829.3 419.3 847 415.7C864.7 412 882.3 396 891.2 388L900 380L900 601L891.2 601C882.3 601 864.7 601 847 601C829.3 601 811.7 601 794 601C776.3 601 758.7 601 741 601C723.3 601 705.7 601 688 601C670.3 601 652.7 601 635 601C617.3 601 599.7 601 582 601C564.3 601 546.7 601 529 601C511.3 601 493.7 601 476.2 601C458.7 601 441.3 601 423.8 601C406.3 601 388.7 601 371 601C353.3 601 335.7 601 318 601C300.3 601 282.7 601 265 601C247.3 601 229.7 601 212 601C194.3 601 176.7 601 159 601C141.3 601 123.7 601 106 601C88.3 601 70.7 601 53 601C35.3 601 17.7 601 8.8 601L0 601Z" fill="#6e30d7"></path><path d="M0 428L8.8 427.7C17.7 427.3 35.3 426.7 53 426.2C70.7 425.7 88.3 425.3 106 423.7C123.7 422 141.3 419 159 417.2C176.7 415.3 194.3 414.7 212 424.2C229.7 433.7 247.3 453.3 265 452.7C282.7 452 300.3 431 318 423C335.7 415 353.3 420 371 423.7C388.7 427.3 406.3 429.7 423.8 426.7C441.3 423.7 458.7 415.3 476.2 418.5C493.7 421.7 511.3 436.3 529 447C546.7 457.7 564.3 464.3 582 471C599.7 477.7 617.3 484.3 635 475.2C652.7 466 670.3 441 688 434.7C705.7 428.3 723.3 440.7 741 439.5C758.7 438.3 776.3 423.7 794 419.5C811.7 415.3 829.3 421.7 847 428C864.7 434.3 882.3 440.7 891.2 443.8L900 447L900 601L891.2 601C882.3 601 864.7 601 847 601C829.3 601 811.7 601 794 601C776.3 601 758.7 601 741 601C723.3 601 705.7 601 688 601C670.3 601 652.7 601 635 601C617.3 601 599.7 601 582 601C564.3 601 546.7 601 529 601C511.3 601 493.7 601 476.2 601C458.7 601 441.3 601 423.8 601C406.3 601 388.7 601 371 601C353.3 601 335.7 601 318 601C300.3 601 282.7 601 265 601C247.3 601 229.7 601 212 601C194.3 601 176.7 601 159 601C141.3 601 123.7 601 106 601C88.3 601 70.7 601 53 601C35.3 601 17.7 601 8.8 601L0 601Z" fill="#682bcc"></path><path d="M0 503L8.8 502.8C17.7 502.7 35.3 502.3 53 506.5C70.7 510.7 88.3 519.3 106 521.2C123.7 523 141.3 518 159 512C176.7 506 194.3 499 212 490.2C229.7 481.3 247.3 470.7 265 475.7C282.7 480.7 300.3 501.3 318 510C335.7 518.7 353.3 515.3 371 507.7C388.7 500 406.3 488 423.8 479.7C441.3 471.3 458.7 466.7 476.2 472.5C493.7 478.3 511.3 494.7 529 505.5C546.7 516.3 564.3 521.7 582 523.5C599.7 525.3 617.3 523.7 635 514.2C652.7 504.7 670.3 487.3 688 483C705.7 478.7 723.3 487.3 741 495.2C758.7 503 776.3 510 794 513.5C811.7 517 829.3 517 847 515.3C864.7 513.7 882.3 510.3 891.2 508.7L900 507L900 601L891.2 601C882.3 601 864.7 601 847 601C829.3 601 811.7 601 794 601C776.3 601 758.7 601 741 601C723.3 601 705.7 601 688 601C670.3 601 652.7 601 635 601C617.3 601 599.7 601 582 601C564.3 601 546.7 601 529 601C511.3 601 493.7 601 476.2 601C458.7 601 441.3 601 423.8 601C406.3 601 388.7 601 371 601C353.3 601 335.7 601 318 601C300.3 601 282.7 601 265 601C247.3 601 229.7 601 212 601C194.3 601 176.7 601 159 601C141.3 601 123.7 601 106 601C88.3 601 70.7 601 53 601C35.3 601 17.7 601 8.8 601L0 601Z" fill="#6126c1"></path><path d="M0 558L8.8 550C17.7 542 35.3 526 53 527C70.7 528 88.3 546 106 552.8C123.7 559.7 141.3 555.3 159 554.5C176.7 553.7 194.3 556.3 212 552.7C229.7 549 247.3 539 265 535.7C282.7 532.3 300.3 535.7 318 533.3C335.7 531 353.3 523 371 526.7C388.7 530.3 406.3 545.7 423.8 553.7C441.3 561.7 458.7 562.3 476.2 561.8C493.7 561.3 511.3 559.7 529 552C546.7 544.3 564.3 530.7 582 524.5C599.7 518.3 617.3 519.7 635 525.3C652.7 531 670.3 541 688 547.3C705.7 553.7 723.3 556.3 741 555.2C758.7 554 776.3 549 794 546.7C811.7 544.3 829.3 544.7 847 547.2C864.7 549.7 882.3 554.3 891.2 556.7L900 559L900 601L891.2 601C882.3 601 864.7 601 847 601C829.3 601 811.7 601 794 601C776.3 601 758.7 601 741 601C723.3 601 705.7 601 688 601C670.3 601 652.7 601 635 601C617.3 601 599.7 601 582 601C564.3 601 546.7 601 529 601C511.3 601 493.7 601 476.2 601C458.7 601 441.3 601 423.8 601C406.3 601 388.7 601 371 601C353.3 601 335.7 601 318 601C300.3 601 282.7 601 265 601C247.3 601 229.7 601 212 601C194.3 601 176.7 601 159 601C141.3 601 123.7 601 106 601C88.3 601 70.7 601 53 601C35.3 601 17.7 601 8.8 601L0 601Z" fill="#5b21b6"></path></svg>