<svg id="visual" viewBox="0 0 900 600" width="900" height="600" xmlns="http://www.w3.org/2000/svg" xmlns:xlink="http://www.w3.org/1999/xlink" version="1.1"><rect x="0" y="0" width="900" height="600" fill="#a78bfa"></rect><path d="M0 201L18.8 206.3C37.7 211.7 75.3 222.3 112.8 223.7C150.3 225 187.7 217 225.2 225.8C262.7 234.7 300.3 260.3 337.8 274.5C375.3 288.7 412.7 291.3 450.2 281.3C487.7 271.3 525.3 248.7 562.8 251C600.3 253.3 637.7 280.7 675.2 285.8C712.7 291 750.3 274 787.8 273.3C825.3 272.7 862.7 288.3 881.3 296.2L900 304L900 601L881.3 601C862.7 601 825.3 601 787.8 601C750.3 601 712.7 601 675.2 601C637.7 601 600.3 601 562.8 601C525.3 601 487.7 601 450.2 601C412.7 601 375.3 601 337.8 601C300.3 601 262.7 601 225.2 601C187.7 601 150.3 601 112.8 601C75.3 601 37.7 601 18.8 601L0 601Z" fill="#7c3aed" stroke-linecap="round" stroke-linejoin="miter"></path></svg>