<svg id="visual" viewBox="0 0 900 600" width="900" height="600" xmlns="http://www.w3.org/2000/svg" xmlns:xlink="http://www.w3.org/1999/xlink" version="1.1"><path d="M0 157L82 157L82 109L164 109L164 85L245 85L245 79L327 79L327 85L409 85L409 145L491 145L491 151L573 151L573 145L655 145L655 79L736 79L736 91L818 91L818 67L900 67L900 85L900 0L900 0L818 0L818 0L736 0L736 0L655 0L655 0L573 0L573 0L491 0L491 0L409 0L409 0L327 0L327 0L245 0L245 0L164 0L164 0L82 0L82 0L0 0Z" fill="#a78bfa"></path><path d="M0 229L82 229L82 151L164 151L164 193L245 193L245 181L327 181L327 187L409 187L409 241L491 241L491 199L573 199L573 241L655 241L655 211L736 211L736 157L818 157L818 157L900 157L900 127L900 83L900 65L818 65L818 89L736 89L736 77L655 77L655 143L573 143L573 149L491 149L491 143L409 143L409 83L327 83L327 77L245 77L245 83L164 83L164 107L82 107L82 155L0 155Z" fill="#9c78f8"></path><path d="M0 319L82 319L82 409L164 409L164 367L245 367L245 319L327 319L327 319L409 319L409 373L491 373L491 307L573 307L573 361L655 361L655 343L736 343L736 301L818 301L818 397L900 397L900 271L900 125L900 155L818 155L818 155L736 155L736 209L655 209L655 239L573 239L573 197L491 197L491 239L409 239L409 185L327 185L327 179L245 179L245 191L164 191L164 149L82 149L82 227L0 227Z" fill="#9165f5"></path><path d="M0 361L82 361L82 493L164 493L164 415L245 415L245 421L327 421L327 379L409 379L409 433L491 433L491 391L573 391L573 445L655 445L655 391L736 391L736 397L818 397L818 493L900 493L900 355L900 269L900 395L818 395L818 299L736 299L736 341L655 341L655 359L573 359L573 305L491 305L491 371L409 371L409 317L327 317L327 317L245 317L245 365L164 365L164 407L82 407L82 317L0 317Z" fill="#8651f1"></path><path d="M0 601L82 601L82 601L164 601L164 601L245 601L245 601L327 601L327 601L409 601L409 601L491 601L491 601L573 601L573 601L655 601L655 601L736 601L736 601L818 601L818 601L900 601L900 601L900 353L900 491L818 491L818 395L736 395L736 389L655 389L655 443L573 443L573 389L491 389L491 431L409 431L409 377L327 377L327 419L245 419L245 413L164 413L164 491L82 491L82 359L0 359Z" fill="#7c3aed"></path></svg>