<svg id="visual" viewBox="0 0 900 600" width="900" height="600" xmlns="http://www.w3.org/2000/svg" xmlns:xlink="http://www.w3.org/1999/xlink" version="1.1"><rect x="0" y="0" width="900" height="600" fill="#a78bfa"></rect><path d="M0 180L82 180L82 140L164 140L164 234L245 234L245 267L327 267L327 165L409 165L409 235L491 235L491 107L573 107L573 253L655 253L655 219L736 219L736 157L818 157L818 192L900 192L900 45L900 601L900 601L818 601L818 601L736 601L736 601L655 601L655 601L573 601L573 601L491 601L491 601L409 601L409 601L327 601L327 601L245 601L245 601L164 601L164 601L82 601L82 601L0 601Z" fill="#7c3aed"></path><path d="M0 376L82 376L82 282L164 282L164 283L245 283L245 335L327 335L327 306L409 306L409 310L491 310L491 283L573 283L573 369L655 369L655 378L736 378L736 284L818 284L818 199L900 199L900 334L900 601L900 601L818 601L818 601L736 601L736 601L655 601L655 601L573 601L573 601L491 601L491 601L409 601L409 601L327 601L327 601L245 601L245 601L164 601L164 601L82 601L82 601L0 601Z" fill="#6b2dd1"></path><path d="M0 370L82 370L82 353L164 353L164 457L245 457L245 564L327 564L327 443L409 443L409 403L491 403L491 516L573 516L573 400L655 400L655 344L736 344L736 432L818 432L818 346L900 346L900 467L900 601L900 601L818 601L818 601L736 601L736 601L655 601L655 601L573 601L573 601L491 601L491 601L409 601L409 601L327 601L327 601L245 601L245 601L164 601L164 601L82 601L82 601L0 601Z" fill="#5b21b6"></path></svg>